999
Inkscape export via OpenSCAD DXF Export
  0
SECTION
  2
HEADER
  9
$ACADVER
  1
AC1014
  9
$HANDSEED
  5
FFFF
  9
$MEASUREMENT
 70
     1
  0
ENDSEC
  0
SECTION
  2
TABLES
  0
TABLE
  2
VPORT
  5
8
330
0
100
AcDbSymbolTable
 70
     4
  0
VPORT
  5
2E
330
8
100
AcDbSymbolTableRecord
100
AcDbViewportTableRecord
  2
*ACTIVE
 70
     0
 10
0.0
 20
0.0
 11
1.0
 21
1.0
 12
210.0
 22
148.5
 13
0.0
 23
0.0
 14
10.0
 24
10.0
 15
10.0
 25
10.0
 16
0.0
 26
0.0
 36
1.0
 17
0.0
 27
0.0
 37
0.0
 40
341.0
 41
1.24
 42
50.0
 43
0.0
 44
0.0
 50
0.0
 51
0.0
 71
     0
 72
   100
 73
     1
 74
     3
 75
     0
 76
     0
 77
     0
 78
     0
  0
ENDTAB
  0
TABLE
  2
LTYPE
  5
5
330
0
100
AcDbSymbolTable
 70
     1
  0
LTYPE
  5
14
330
5
100
AcDbSymbolTableRecord
100
AcDbLinetypeTableRecord
  2
BYBLOCK
 70
     0
  3

 72
    65
 73
     0
 40
0.0
  0
LTYPE
  5
15
330
5
100
AcDbSymbolTableRecord
100
AcDbLinetypeTableRecord
  2
BYLAYER
 70
     0
  3

 72
    65
 73
     0
 40
0.0
  0
LTYPE
  5
16
330
5
100
AcDbSymbolTableRecord
100
AcDbLinetypeTableRecord
  2
CONTINUOUS
 70
     0
  3
Solid line
 72
    65
 73
     0
 40
0.0
  0
ENDTAB
  0
TABLE
0
TABLE
2
LAYER
5
2
330
0
100
AcDbSymbolTable
70
1
0
LAYER
5
10
330
2
100
AcDbSymbolTableRecord
100
AcDbLayerTableRecord
2
Layer_1
70
0
62
7
6
CONTINUOUS
0
ENDTAB
0
ENDSEC
  0
ENDTAB
  0
TABLE
  2
STYLE
  5
3
330
0
100
AcDbSymbolTable
 70
     1
  0
STYLE
  5
11
330
3
100
AcDbSymbolTableRecord
100
AcDbTextStyleTableRecord
  2
STANDARD
 70
     0
 40
0.0
 41
1.0
 50
0.0
 71
     0
 42
2.5
  3
txt
  4

  0
ENDTAB
  0
TABLE
  2
VIEW
  5
6
330
0
100
AcDbSymbolTable
 70
     0
  0
ENDTAB
  0
TABLE
  2
UCS
  5
7
330
0
100
AcDbSymbolTable
 70
     0
  0
ENDTAB
  0
TABLE
  2
APPID
  5
9
330
0
100
AcDbSymbolTable
 70
     2
  0
APPID
  5
12
330
9
100
AcDbSymbolTableRecord
100
AcDbRegAppTableRecord
  2
ACAD
 70
     0
  0
ENDTAB
  0
TABLE
  2
DIMSTYLE
  5
A
330
0
100
AcDbSymbolTable
 70
     1
  0
DIMSTYLE
105
27
330
A
100
AcDbSymbolTableRecord
100
AcDbDimStyleTableRecord
  2
ISO-25
 70
     0
  3

  4

  5

  6

  7

 40
1.0
 41
2.5
 42
0.625
 43
3.75
 44
1.25
 45
0.0
 46
0.0
 47
0.0
 48
0.0
140
2.5
141
2.5
142
0.0
143
0.03937007874016
144
1.0
145
0.0
146
1.0
147
0.625
 71
     0
 72
     0
 73
     0
 74
     0
 75
     0
 76
     0
 77
     1
 78
     8
170
     0
171
     3
172
     1
173
     0
174
     0
175
     0
176
     0
177
     0
178
     0
270
     2
271
     2
272
     2
273
     2
274
     3
340
11
275
     0
280
     0
281
     0
282
     0
283
     0
284
     8
285
     0
286
     0
287
     3
288
     0
  0
ENDTAB
  0
TABLE
  2
BLOCK_RECORD
  5
1
330
0
100
AcDbSymbolTable
 70
     1
  0
BLOCK_RECORD
  5
1F
330
1
100
AcDbSymbolTableRecord
100
AcDbBlockTableRecord
  2
*MODEL_SPACE
  0
BLOCK_RECORD
  5
1B
330
1
100
AcDbSymbolTableRecord
100
AcDbBlockTableRecord
  2
*PAPER_SPACE
  0
ENDTAB
  0
ENDSEC
  0
SECTION
  2
BLOCKS
  0
BLOCK
  5
20
330
1F
100
AcDbEntity
  8
0
100
AcDbBlockBegin
  2
*MODEL_SPACE
 70
     0
 10
0.0
 20
0.0
 30
0.0
  3
*MODEL_SPACE
  1

  0
ENDBLK
  5
21
330
1F
100
AcDbEntity
  8
0
100
AcDbBlockEnd
  0
BLOCK
  5
1C
330
1B
100
AcDbEntity
 67
     1
  8
0
100
AcDbBlockBegin
  2
*PAPER_SPACE
  1

  0
ENDBLK
  5
1D
330
1B
100
AcDbEntity
 67
     1
  8
0
100
AcDbBlockEnd
  0
ENDSEC
  0
SECTION
  2
ENTITIES
0
DIMENSION
5
83
100
AcDbEntity
62
256
370
-1
6
ByLayer
1
total_width
3
Standard
70
0
71
5
72
1
41
1.0
100
AcDbAlignedDimension
13
0.010033
23
0.000000
33
0.0
14
56.961631
24
0.000000
34
0.0
50
0.000000
100
AcDbRotatedDimension
0
DIMENSION
5
83
100
AcDbEntity
62
256
370
-1
6
ByLayer
1
total_minx
3
Standard
70
0
71
5
72
1
41
1.0
100
AcDbAlignedDimension
13
0.010033
23
0.000000
33
0.0
14
0.000000
24
0.000000
34
0.0
50
0.000000
100
AcDbRotatedDimension
0
DIMENSION
5
83
100
AcDbEntity
62
256
370
-1
6
ByLayer
1
total_maxx
3
Standard
70
0
71
5
72
1
41
1.0
100
AcDbAlignedDimension
13
0.000000
23
0.000000
33
0.0
14
56.961631
24
0.000000
34
0.0
50
0.000000
100
AcDbRotatedDimension
0
DIMENSION
5
83
100
AcDbEntity
62
256
370
-1
6
ByLayer
1
total_height
3
Standard
70
0
71
5
72
1
41
1.0
100
AcDbAlignedDimension
13
0.000000
23
0.000251
33
0.0
14
0.000000
24
18.173426
34
0.0
50
90.000000
100
AcDbRotatedDimension
0
DIMENSION
5
83
100
AcDbEntity
62
256
370
-1
6
ByLayer
1
total_miny
3
Standard
70
0
71
5
72
1
41
1.0
100
AcDbAlignedDimension
13
0.000251
23
0.000000
33
0.0
14
0.000000
24
0.000000
34
0.0
50
0.000000
100
AcDbRotatedDimension
0
DIMENSION
5
83
100
AcDbEntity
62
256
370
-1
6
ByLayer
1
total_maxy
3
Standard
70
0
71
5
72
1
41
1.0
100
AcDbAlignedDimension
13
0.000000
23
0.000000
33
0.0
14
18.173426
24
0.000000
34
0.0
50
0.000000
100
AcDbRotatedDimension
0
DIMENSION
8
Layer_1
5
83
100
AcDbEntity
62
256
370
-1
6
ByLayer
1
Layer_1_width
3
Standard
70
0
71
5
72
1
41
1.0
100
AcDbAlignedDimension
13
0.010033
23
0.000000
33
0.0
14
56.961631
24
0.000000
34
0.0
50
0.000000
100
AcDbRotatedDimension
0
DIMENSION
8
Layer_1
5
83
100
AcDbEntity
62
256
370
-1
6
ByLayer
1
Layer_1_minx
3
Standard
70
0
71
5
72
1
41
1.0
100
AcDbAlignedDimension
13
0.010033
23
0.000000
33
0.0
14
0.000000
24
0.000000
34
0.0
50
0.000000
100
AcDbRotatedDimension
0
DIMENSION
8
Layer_1
5
83
100
AcDbEntity
62
256
370
-1
6
ByLayer
1
Layer_1_maxx
3
Standard
70
0
71
5
72
1
41
1.0
100
AcDbAlignedDimension
13
0.000000
23
0.000000
33
0.0
14
56.961631
24
0.000000
34
0.0
50
0.000000
100
AcDbRotatedDimension
0
DIMENSION
8
Layer_1
5
83
100
AcDbEntity
62
256
370
-1
6
ByLayer
1
Layer_1_height
3
Standard
70
0
71
5
72
1
41
1.0
100
AcDbAlignedDimension
13
0.000000
23
0.000251
33
0.0
14
0.000000
24
18.173426
34
0.0
50
90.000000
100
AcDbRotatedDimension
0
DIMENSION
8
Layer_1
5
83
100
AcDbEntity
62
256
370
-1
6
ByLayer
1
Layer_1_miny
3
Standard
70
0
71
5
72
1
41
1.0
100
AcDbAlignedDimension
13
0.000251
23
0.000000
33
0.0
14
0.000000
24
0.000000
34
0.0
50
0.000000
100
AcDbRotatedDimension
0
DIMENSION
8
Layer_1
5
83
100
AcDbEntity
62
256
370
-1
6
ByLayer
1
Layer_1_maxy
3
Standard
70
0
71
5
72
1
41
1.0
100
AcDbAlignedDimension
13
0.000000
23
0.000000
33
0.0
14
18.173426
24
0.000000
34
0.0
50
0.000000
100
AcDbRotatedDimension
62
0
0
LWPOLYLINE
100
AcDbPolyline
8
Layer_1
90
19
70
0
10
13.706239
20
1.335013
30
0.0
10
0.318673
20
2.697567
30
0.0
10
0.166449
20
3.882960
30
0.0
10
0.010033
20
8.336255
30
0.0
10
0.057069
20
13.411333
30
0.0
10
0.323497
20
17.301348
30
0.0
10
9.770455
20
17.872363
30
0.0
10
17.233900
20
18.124018
30
0.0
10
27.280874
20
18.173426
30
0.0
10
36.898376
20
18.131983
30
0.0
10
44.529942
20
17.910824
30
0.0
10
56.698405
20
17.305347
30
0.0
10
56.961631
20
14.349535
30
0.0
10
56.960502
20
5.927460
30
0.0
10
56.702873
20
2.693185
30
0.0
10
44.305957
20
1.486837
30
0.0
10
27.644684
20
0.000251
30
0.0
10
13.706267
20
1.335013
30
0.0
10
13.706239
20
1.335013
30
0.0
62
0
0
LWPOLYLINE
100
AcDbPolyline
8
Layer_1
90
22
70
0
10
14.682813
20
2.948618
30
0.0
10
14.946504
20
3.135297
30
0.0
10
15.206479
20
3.276628
30
0.0
10
15.474821
20
3.394744
30
0.0
10
15.520146
20
4.313199
30
0.0
10
15.594269
20
5.187668
30
0.0
10
11.468680
20
6.704412
30
0.0
10
7.873145
20
7.913825
30
0.0
10
7.044953
20
8.055079
30
0.0
10
6.087879
20
7.822869
30
0.0
10
4.487461
20
7.758464
30
0.0
10
3.050038
20
7.756771
30
0.0
10
3.050038
20
8.672776
30
0.0
10
3.050038
20
9.588777
30
0.0
10
2.471336
20
9.793577
30
0.0
10
1.836630
20
9.997638
30
0.0
10
1.823514
20
7.124672
30
0.0
10
2.072415
20
4.034364
30
0.0
10
7.868489
20
3.438172
30
0.0
10
13.332953
20
2.965210
30
0.0
10
14.682813
20
2.948480
30
0.0
10
14.682813
20
2.948618
30
0.0
62
0
0
LWPOLYLINE
100
AcDbPolyline
8
Layer_1
90
42
70
0
10
49.569071
20
3.505908
30
0.0
10
54.945404
20
3.997153
30
0.0
10
55.216857
20
8.973797
30
0.0
10
55.268472
20
11.572107
30
0.0
10
54.864849
20
11.412341
30
0.0
10
53.510143
20
10.881270
30
0.0
10
52.559063
20
10.509964
30
0.0
10
52.717807
20
10.197502
30
0.0
10
53.426208
20
8.863813
30
0.0
10
53.975861
20
7.799747
30
0.0
10
53.159606
20
7.756906
30
0.0
10
52.343349
20
7.756906
30
0.0
10
51.759519
20
8.861024
30
0.0
10
51.045014
20
9.938283
30
0.0
10
50.935738
20
9.739427
30
0.0
10
50.914340
20
8.834165
30
0.0
10
50.914340
20
7.756906
30
0.0
10
50.167625
20
7.756906
30
0.0
10
49.420913
20
7.756906
30
0.0
10
49.420913
20
8.503621
30
0.0
10
49.366757
20
9.250333
30
0.0
10
48.806724
20
9.051857
30
0.0
10
48.300843
20
8.853382
30
0.0
10
48.300843
20
8.305145
30
0.0
10
48.300843
20
7.756906
30
0.0
10
46.900756
20
7.758882
30
0.0
10
45.500671
20
7.760857
30
0.0
10
42.943179
20
6.769791
30
0.0
10
40.385687
20
5.778726
30
0.0
10
40.386816
20
5.554286
30
0.0
10
40.453643
20
5.433568
30
0.0
10
41.257267
20
5.601229
30
0.0
10
42.228603
20
5.630630
30
0.0
10
42.571154
20
5.659281
30
0.0
10
43.092167
20
5.654822
30
0.0
10
43.433458
20
5.582031
30
0.0
10
43.514998
20
5.113802
30
0.0
10
43.596537
20
3.807056
30
0.0
10
43.596537
20
2.968543
30
0.0
10
43.913891
20
3.010687
30
0.0
10
49.569057
20
3.505660
30
0.0
10
49.569071
20
3.505908
30
0.0
62
0
0
LWPOLYLINE
100
AcDbPolyline
8
Layer_1
90
12
70
0
10
17.725239
20
3.608304
30
0.0
10
17.776750
20
4.089324
30
0.0
10
18.185035
20
4.140335
30
0.0
10
18.774171
20
4.108947
30
0.0
10
18.954935
20
4.080950
30
0.0
10
18.160499
20
4.405114
30
0.0
10
17.366150
20
4.674876
30
0.0
10
17.408393
20
4.031759
30
0.0
10
17.487182
20
3.331616
30
0.0
10
17.612988
20
3.127290
30
0.0
10
17.725239
20
3.608307
30
0.0
10
17.725239
20
3.608304
30
0.0
62
0
0
LWPOLYLINE
100
AcDbPolyline
8
Layer_1
90
106
70
0
10
34.010840
20
3.616009
30
0.0
10
34.449317
20
3.796515
30
0.0
10
35.569387
20
4.226346
30
0.0
10
36.540115
20
4.591027
30
0.0
10
36.561395
20
5.352587
30
0.0
10
36.601889
20
5.991558
30
0.0
10
36.723297
20
6.114150
30
0.0
10
37.030801
20
6.204125
30
0.0
10
37.100149
20
6.603094
30
0.0
10
37.170238
20
7.023924
30
0.0
10
37.334616
20
7.001104
30
0.0
10
37.360016
20
6.587467
30
0.0
10
37.395246
20
6.228371
30
0.0
10
37.477804
20
5.867061
30
0.0
10
37.534486
20
5.259050
30
0.0
10
37.586864
20
4.963987
30
0.0
10
37.834725
20
5.501733
30
0.0
10
38.147907
20
6.039479
30
0.0
10
38.361863
20
5.703457
30
0.0
10
38.523247
20
5.397518
30
0.0
10
38.699468
20
5.412763
30
0.0
10
38.817584
20
6.373286
30
0.0
10
38.817584
20
7.288482
30
0.0
10
39.274674
20
7.385485
30
0.0
10
40.040055
20
7.370329
30
0.0
10
40.348346
20
7.258157
30
0.0
10
40.370162
20
6.686161
30
0.0
10
40.437288
20
6.114164
30
0.0
10
42.582607
20
6.921563
30
0.0
10
44.540582
20
7.743740
30
0.0
10
44.437397
20
8.314088
30
0.0
10
44.417940
20
11.234623
30
0.0
10
44.417940
20
14.701362
30
0.0
10
46.359394
20
14.701362
30
0.0
10
48.300846
20
14.701362
30
0.0
10
48.300846
20
13.991985
30
0.0
10
48.300846
20
13.282608
30
0.0
10
47.068771
20
13.282608
30
0.0
10
45.836693
20
13.282608
30
0.0
10
45.836693
20
12.759910
30
0.0
10
45.836693
20
12.237209
30
0.0
10
47.068771
20
12.237209
30
0.0
10
48.300846
20
12.237209
30
0.0
10
48.300846
20
11.527832
30
0.0
10
48.300846
20
10.818455
30
0.0
10
47.068771
20
10.818455
30
0.0
10
45.836693
20
10.818455
30
0.0
10
45.836693
20
9.998877
30
0.0
10
45.836693
20
9.179298
30
0.0
10
47.087440
20
9.158836
30
0.0
10
48.236337
20
9.169176
30
0.0
10
48.860882
20
9.338158
30
0.0
10
49.383583
20
9.537951
30
0.0
10
49.403226
20
12.119664
30
0.0
10
49.422868
20
14.701373
30
0.0
10
50.612963
20
14.701373
30
0.0
10
52.109898
20
14.622173
30
0.0
10
52.874500
20
14.301109
30
0.0
10
53.415025
20
13.630148
30
0.0
10
53.602523
20
12.741388
30
0.0
10
53.517292
20
11.932734
30
0.0
10
53.197625
20
11.372540
30
0.0
10
52.680576
20
10.953854
30
0.0
10
52.411633
20
10.792503
30
0.0
10
52.544718
20
10.796653
30
0.0
10
53.864022
20
11.261674
30
0.0
10
55.207958
20
11.779654
30
0.0
10
55.189642
20
12.400463
30
0.0
10
55.084331
20
14.353088
30
0.0
10
54.986950
20
15.493431
30
0.0
10
54.841287
20
15.742426
30
0.0
10
53.527847
20
15.849465
30
0.0
10
46.424929
20
16.158631
30
0.0
10
45.482389
20
16.203574
30
0.0
10
44.446139
20
15.297353
30
0.0
10
43.409890
20
14.391132
30
0.0
10
42.457830
20
12.554023
30
0.0
10
41.505770
20
10.716915
30
0.0
10
41.505770
20
9.236930
30
0.0
10
41.505770
20
7.756943
30
0.0
10
40.759058
20
7.756943
30
0.0
10
40.012343
20
7.756943
30
0.0
10
40.012343
20
9.254078
30
0.0
10
39.896923
20
10.974409
30
0.0
10
39.781503
20
11.197607
30
0.0
10
39.453676
20
10.914699
30
0.0
10
38.304391
20
9.922411
30
0.0
10
37.482932
20
9.213034
30
0.0
10
37.478219
20
8.484989
30
0.0
10
37.473506
20
7.756943
30
0.0
10
36.656295
20
7.756943
30
0.0
10
35.839081
20
7.756943
30
0.0
10
33.613440
20
5.805147
30
0.0
10
31.361651
20
3.831328
30
0.0
10
31.387474
20
3.725192
30
0.0
10
31.538226
20
3.776229
30
0.0
10
32.109760
20
3.911371
30
0.0
10
32.524289
20
3.943190
30
0.0
10
32.747244
20
4.079680
30
0.0
10
32.995137
20
4.242343
30
0.0
10
33.422576
20
4.259224
30
0.0
10
33.633865
20
4.200630
30
0.0
10
33.665259
20
3.874036
30
0.0
10
33.693484
20
3.500679
30
0.0
10
34.010834
20
3.616034
30
0.0
10
34.010840
20
3.616009
30
0.0
62
0
0
LWPOLYLINE
100
AcDbPolyline
8
Layer_1
90
6
70
0
10
35.158697
20
3.649997
30
0.0
10
35.079618
20
3.724667
30
0.0
10
35.046689
20
3.649997
30
0.0
10
35.125767
20
3.575327
30
0.0
10
35.158697
20
3.649997
30
0.0
10
35.158697
20
3.649997
30
0.0
62
0
0
LWPOLYLINE
100
AcDbPolyline
8
Layer_1
90
36
70
0
10
21.873316
20
4.956313
30
0.0
10
22.406244
20
5.106075
30
0.0
10
22.865019
20
5.180748
30
0.0
10
21.267139
20
6.468827
30
0.0
10
19.669259
20
7.756906
30
0.0
10
18.221419
20
7.756906
30
0.0
10
17.021436
20
7.737305
30
0.0
10
16.818905
20
7.638793
30
0.0
10
16.864227
20
7.146440
30
0.0
10
16.892293
20
6.835189
30
0.0
10
17.013570
20
6.733145
30
0.0
10
17.139428
20
6.585430
30
0.0
10
17.162914
20
5.964075
30
0.0
10
17.274919
20
5.191080
30
0.0
10
17.386928
20
5.049627
30
0.0
10
18.894545
20
4.471371
30
0.0
10
18.986027
20
4.725216
30
0.0
10
19.143679
20
5.070379
30
0.0
10
19.253709
20
5.376568
30
0.0
10
19.356410
20
5.589720
30
0.0
10
19.508386
20
5.404762
30
0.0
10
19.628489
20
5.218083
30
0.0
10
19.701737
20
5.404762
30
0.0
10
19.813745
20
5.591440
30
0.0
10
19.926030
20
5.460766
30
0.0
10
20.075374
20
5.085602
30
0.0
10
20.224438
20
4.520249
30
0.0
10
20.224438
20
4.199382
30
0.0
10
20.719684
20
4.259004
30
0.0
10
21.244239
20
4.277549
30
0.0
10
21.344507
20
4.056270
30
0.0
10
21.496193
20
3.874000
30
0.0
10
21.701538
20
3.743325
30
0.0
10
21.777182
20
4.246936
30
0.0
10
21.873316
20
4.956313
30
0.0
10
21.873316
20
4.956313
30
0.0
62
0
0
LWPOLYLINE
100
AcDbPolyline
8
Layer_1
90
7
70
0
10
38.783297
20
5.127921
30
0.0
10
38.715721
20
5.059475
30
0.0
10
38.738429
20
4.434033
30
0.0
10
38.780254
20
3.761991
30
0.0
10
38.801957
20
4.424767
30
0.0
10
38.783274
20
5.127921
30
0.0
10
38.783297
20
5.127921
30
0.0
62
0
0
LWPOLYLINE
100
AcDbPolyline
8
Layer_1
90
21
70
0
10
33.391009
20
6.002130
30
0.0
10
35.360768
20
7.719571
30
0.0
10
34.477192
20
7.740540
30
0.0
10
33.593614
20
7.761481
30
0.0
10
33.573435
20
9.286957
30
0.0
10
33.553256
20
10.812433
30
0.0
10
33.050074
20
9.891164
30
0.0
10
32.546891
20
8.969900
30
0.0
10
32.622702
20
8.531414
30
0.0
10
32.734385
20
7.928497
30
0.0
10
32.696997
20
7.785343
30
0.0
10
32.316615
20
7.741818
30
0.0
10
31.862968
20
7.719579
30
0.0
10
30.936729
20
6.039477
30
0.0
10
30.008429
20
4.206491
30
0.0
10
30.080631
20
4.081619
30
0.0
10
30.491735
20
4.084515
30
0.0
10
30.977098
20
4.022479
30
0.0
10
31.307410
20
4.202557
30
0.0
10
33.391004
20
6.002139
30
0.0
10
33.391009
20
6.002130
30
0.0
62
0
0
LWPOLYLINE
100
AcDbPolyline
8
Layer_1
90
8
70
0
10
36.241428
20
4.023343
30
0.0
10
36.432515
20
4.098013
30
0.0
10
36.577451
20
4.207366
30
0.0
10
36.260097
20
4.181599
30
0.0
10
35.830739
20
4.003469
30
0.0
10
35.957005
20
3.954554
30
0.0
10
36.241428
20
4.023332
30
0.0
10
36.241428
20
4.023343
30
0.0
62
0
0
LWPOLYLINE
100
AcDbPolyline
8
Layer_1
90
7
70
0
10
24.022277
20
4.240928
30
0.0
10
23.830193
20
4.352155
30
0.0
10
23.834427
20
4.213242
30
0.0
10
24.038601
20
4.098013
30
0.0
10
24.154839
20
4.116619
30
0.0
10
24.022288
20
4.240928
30
0.0
10
24.022277
20
4.240928
30
0.0
62
0
0
LWPOLYLINE
100
AcDbPolyline
8
Layer_1
90
40
70
0
10
24.480702
20
4.686241
30
0.0
10
24.574145
20
5.106139
30
0.0
10
25.025303
20
5.257394
30
0.0
10
25.361323
20
5.363083
30
0.0
10
24.630042
20
6.585870
30
0.0
10
23.920666
20
7.756254
30
0.0
10
22.408573
20
7.756536
30
0.0
10
20.896480
20
7.756819
30
0.0
10
20.896480
20
10.264261
30
0.0
10
20.896480
20
12.771769
30
0.0
10
19.803331
20
14.595196
30
0.0
10
18.710183
20
16.418622
30
0.0
10
17.656532
20
16.418904
30
0.0
10
10.673511
20
16.207421
30
0.0
10
9.672448
20
16.157160
30
0.0
10
10.628089
20
15.385375
30
0.0
10
11.577145
20
14.649868
30
0.0
10
11.786580
20
14.621022
30
0.0
10
12.543746
20
14.685013
30
0.0
10
13.300912
20
14.663733
30
0.0
10
13.707935
20
13.618334
30
0.0
10
14.114959
20
12.572938
30
0.0
10
15.396253
20
11.553749
30
0.0
10
16.677551
20
10.534560
30
0.0
10
16.697391
20
12.617814
30
0.0
10
16.717231
20
14.701068
30
0.0
10
17.461860
20
14.701068
30
0.0
10
18.206490
20
14.701068
30
0.0
10
18.226076
20
11.956900
30
0.0
10
18.245662
20
9.212727
30
0.0
10
19.160387
20
9.191758
30
0.0
10
20.075111
20
9.170789
30
0.0
10
20.075958
20
8.482381
30
0.0
10
20.076805
20
7.793967
30
0.0
10
21.805286
20
6.412546
30
0.0
10
23.586825
20
5.009461
30
0.0
10
24.002609
20
4.654770
30
0.0
10
24.422973
20
4.321754
30
0.0
10
24.480603
20
4.685964
30
0.0
10
24.480702
20
4.686241
30
0.0
62
0
0
LWPOLYLINE
100
AcDbPolyline
8
Layer_1
90
17
70
0
10
28.655117
20
5.834120
30
0.0
10
28.931701
20
7.548031
30
0.0
10
28.903272
20
7.727339
30
0.0
10
28.468066
20
7.772044
30
0.0
10
27.964837
20
7.794255
30
0.0
10
27.317972
20
9.735608
30
0.0
10
26.671110
20
11.676959
30
0.0
10
26.549066
20
11.042354
30
0.0
10
26.427019
20
10.407752
30
0.0
10
27.000444
20
7.439567
30
0.0
10
27.573869
20
4.471385
30
0.0
10
27.763392
20
4.470256
30
0.0
10
28.064924
20
4.396729
30
0.0
10
28.255947
20
4.313027
30
0.0
10
28.386001
20
4.446795
30
0.0
10
28.655117
20
5.834149
30
0.0
10
28.655117
20
5.834120
30
0.0
62
0
0
LWPOLYLINE
100
AcDbPolyline
8
Layer_1
90
38
70
0
10
27.160201
20
4.464434
30
0.0
10
26.790685
20
6.962394
30
0.0
10
26.296302
20
9.373385
30
0.0
10
26.160220
20
8.722394
30
0.0
10
26.008472
20
7.924919
30
0.0
10
25.875149
20
7.780985
30
0.0
10
25.263327
20
7.756906
30
0.0
10
24.674272
20
7.779050
30
0.0
10
24.555372
20
7.888760
30
0.0
10
25.033869
20
10.784513
30
0.0
10
25.512365
20
13.548416
30
0.0
10
25.295285
20
14.628907
30
0.0
10
24.998173
20
16.101424
30
0.0
10
24.918141
20
16.493448
30
0.0
10
21.965930
20
16.493448
30
0.0
10
19.050935
20
16.396465
30
0.0
10
19.992316
20
14.811254
30
0.0
10
20.896480
20
13.323028
30
0.0
10
20.896480
20
14.012184
30
0.0
10
20.896480
20
14.701337
30
0.0
10
21.643192
20
14.701337
30
0.0
10
22.389904
20
14.701337
30
0.0
10
22.389904
20
12.780368
30
0.0
10
22.389904
20
10.859400
30
0.0
10
22.893936
20
10.019671
30
0.0
10
23.397967
20
9.179944
30
0.0
10
23.827326
20
9.177686
30
0.0
10
24.256688
20
9.175428
30
0.0
10
24.256651
20
8.484720
30
0.0
10
24.256614
20
7.794010
30
0.0
10
25.005423
20
6.551436
30
0.0
10
25.901516
20
5.270348
30
0.0
10
26.048124
20
5.019494
30
0.0
10
26.168962
20
4.722059
30
0.0
10
26.464090
20
4.495667
30
0.0
10
26.829255
20
4.392366
30
0.0
10
27.160201
20
4.464202
30
0.0
10
27.160201
20
4.464434
30
0.0
62
0
0
LWPOLYLINE
100
AcDbPolyline
8
Layer_1
90
20
70
0
10
28.960978
20
4.996411
30
0.0
10
29.017789
20
5.564531
30
0.0
10
29.466436
20
5.698332
30
0.0
10
29.748599
20
5.705370
30
0.0
10
29.859642
20
5.536545
30
0.0
10
29.990409
20
5.194275
30
0.0
10
30.188627
20
5.363919
30
0.0
10
30.773274
20
6.365536
30
0.0
10
31.499802
20
7.714759
30
0.0
10
31.395774
20
7.756906
30
0.0
10
31.217706
20
8.186268
30
0.0
10
30.896362
20
10.090638
30
0.0
10
30.594148
20
11.509392
30
0.0
10
29.893029
20
9.549017
30
0.0
10
29.316046
20
7.729058
30
0.0
10
29.030577
20
6.263482
30
0.0
10
28.772265
20
4.639381
30
0.0
10
28.845589
20
4.396698
30
0.0
10
28.960978
20
4.996411
30
0.0
10
28.960978
20
4.996411
30
0.0
62
0
0
LWPOLYLINE
100
AcDbPolyline
8
Layer_1
90
19
70
0
10
15.698835
20
5.709553
30
0.0
10
15.744157
20
6.306924
30
0.0
10
15.818830
20
6.786180
30
0.0
10
15.893501
20
7.268932
30
0.0
10
15.893501
20
7.751682
30
0.0
10
15.132884
20
7.772962
30
0.0
10
14.372264
20
7.794241
30
0.0
10
14.118859
20
8.447617
30
0.0
10
13.865452
20
9.100989
30
0.0
10
12.545230
20
9.100989
30
0.0
10
11.225012
20
9.100989
30
0.0
10
10.965196
20
8.428948
30
0.0
10
10.705380
20
7.756906
30
0.0
10
9.957900
20
7.752870
30
0.0
10
9.210421
20
7.748834
30
0.0
10
12.346614
20
6.675241
30
0.0
10
15.568161
20
5.596557
30
0.0
10
15.698835
20
5.709576
30
0.0
10
15.698835
20
5.709553
30
0.0
62
0
0
LWPOLYLINE
100
AcDbPolyline
8
Layer_1
90
28
70
0
10
10.369377
20
11.004567
30
0.0
10
11.608176
20
14.192030
30
0.0
10
10.487113
20
15.181967
30
0.0
10
9.334028
20
16.120093
30
0.0
10
8.749526
20
16.118400
30
0.0
10
6.186233
20
16.006561
30
0.0
10
3.222758
20
15.847466
30
0.0
10
2.144467
20
15.740761
30
0.0
10
1.817917
20
11.638458
30
0.0
10
1.763818
20
10.255775
30
0.0
10
2.313589
20
10.079107
30
0.0
10
2.956699
20
9.867036
30
0.0
10
3.050038
20
12.273864
30
0.0
10
3.050038
20
14.716100
30
0.0
10
4.636803
20
14.685112
30
0.0
10
6.036241
20
14.631677
30
0.0
10
6.655341
20
14.484737
30
0.0
10
7.466781
20
14.019106
30
0.0
10
8.072235
20
13.345885
30
0.0
10
8.463639
20
12.477548
30
0.0
10
8.632925
20
11.426568
30
0.0
10
8.483471
20
9.880080
30
0.0
10
8.219386
20
9.255750
30
0.0
10
7.818829
20
8.696370
30
0.0
10
7.539783
20
8.325177
30
0.0
10
9.111837
20
7.827433
30
0.0
10
10.369377
20
11.004474
30
0.0
10
10.369377
20
11.004567
30
0.0
62
0
0
LWPOLYLINE
100
AcDbPolyline
8
Layer_1
90
16
70
0
10
16.048167
20
8.387879
30
0.0
10
16.117515
20
8.767459
30
0.0
10
16.158371
20
9.099616
30
0.0
10
16.295941
20
9.119602
30
0.0
10
16.490872
20
9.065627
30
0.0
10
16.647150
20
8.690297
30
0.0
10
16.683357
20
8.635366
30
0.0
10
16.703154
20
9.228133
30
0.0
10
16.714894
20
10.139327
30
0.0
10
15.553231
20
11.084433
30
0.0
10
14.364757
20
12.002688
30
0.0
10
15.134396
20
9.898535
30
0.0
10
15.776294
20
8.286452
30
0.0
10
15.954839
20
8.069089
30
0.0
10
16.048178
20
8.387879
30
0.0
10
16.048167
20
8.387879
30
0.0
62
0
0
LWPOLYLINE
100
AcDbPolyline
8
Layer_1
90
16
70
0
10
6.237071
20
9.398821
30
0.0
10
6.648622
20
9.693427
30
0.0
10
6.946107
20
10.147831
30
0.0
10
7.114833
20
10.729383
30
0.0
10
7.140108
20
11.405435
30
0.0
10
6.950135
20
12.191952
30
0.0
10
6.583600
20
12.775700
30
0.0
10
5.975330
20
13.099297
30
0.0
10
5.131293
20
13.263632
30
0.0
10
4.543464
20
13.303922
30
0.0
10
4.543464
20
11.325874
30
0.0
10
4.564521
20
9.585064
30
0.0
10
4.711475
20
9.262584
30
0.0
10
5.413513
20
9.222198
30
0.0
10
6.237071
20
9.398821
30
0.0
10
6.237071
20
9.398821
30
0.0
62
0
0
LWPOLYLINE
100
AcDbPolyline
8
Layer_1
90
9
70
0
10
22.970881
20
9.343672
30
0.0
10
22.656513
20
9.866370
30
0.0
10
22.420144
20
10.221059
30
0.0
10
22.389904
20
9.698361
30
0.0
10
22.389904
20
9.175663
30
0.0
10
22.734514
20
9.175663
30
0.0
10
23.020079
20
9.197616
30
0.0
10
22.970881
20
9.343672
30
0.0
10
22.970881
20
9.343672
30
0.0
62
0
0
LWPOLYLINE
100
AcDbPolyline
8
Layer_1
90
38
70
0
10
38.335128
20
10.308836
30
0.0
10
39.637609
20
11.442009
30
0.0
10
38.816907
20
13.029192
30
0.0
10
37.996204
20
14.658856
30
0.0
10
38.805604
20
14.701337
30
0.0
10
39.615003
20
14.701337
30
0.0
10
39.707287
20
14.495992
30
0.0
10
40.289000
20
13.365503
30
0.0
10
40.778433
20
12.440358
30
0.0
10
41.347441
20
13.552178
30
0.0
10
41.916449
20
14.664001
30
0.0
10
42.653173
20
14.685478
30
0.0
10
43.389900
20
14.706956
30
0.0
10
44.230293
20
15.440849
30
0.0
10
45.070683
20
16.174743
30
0.0
10
44.352286
20
16.220186
30
0.0
10
36.708489
20
16.399078
30
0.0
10
36.145845
20
15.528677
30
0.0
10
35.695422
20
14.701337
30
0.0
10
36.584464
20
14.701337
30
0.0
10
37.473506
20
14.701337
30
0.0
10
37.473506
20
13.991960
30
0.0
10
37.473506
20
13.282583
30
0.0
10
36.278766
20
13.282583
30
0.0
10
35.084024
20
13.282583
30
0.0
10
35.084024
20
12.759885
30
0.0
10
35.084024
20
12.237184
30
0.0
10
36.278766
20
12.237184
30
0.0
10
37.473506
20
12.237184
30
0.0
10
37.473506
20
11.527807
30
0.0
10
37.473506
20
10.818430
30
0.0
10
36.278766
20
10.818430
30
0.0
10
35.084024
20
10.818430
30
0.0
10
35.084024
20
9.997045
30
0.0
10
35.084024
20
9.175663
30
0.0
10
36.058337
20
9.175663
30
0.0
10
37.032647
20
9.175663
30
0.0
10
38.335128
20
10.308836
30
0.0
62
0
0
LWPOLYLINE
100
AcDbPolyline
8
Layer_1
90
22
70
0
10
33.589476
20
13.074938
30
0.0
10
33.590605
20
14.696742
30
0.0
10
34.499135
20
14.717711
30
0.0
10
35.407668
20
14.738680
30
0.0
10
35.852828
20
15.544236
30
0.0
10
36.244874
20
16.402956
30
0.0
10
33.407564
20
16.481611
30
0.0
10
30.623366
20
16.507096
30
0.0
10
30.581871
20
16.332265
30
0.0
10
30.455512
20
15.560063
30
0.0
10
30.332827
20
14.832017
30
0.0
10
30.405644
20
14.722726
30
0.0
10
30.933319
20
14.701342
30
0.0
10
31.483403
20
14.676647
30
0.0
10
31.609594
20
14.533332
30
0.0
10
32.026414
20
12.087849
30
0.0
10
32.447490
20
9.636421
30
0.0
10
32.586929
20
9.686643
30
0.0
10
33.039036
20
10.457807
30
0.0
10
33.588359
20
11.453142
30
0.0
10
33.589488
20
13.074944
30
0.0
10
33.589476
20
13.074938
30
0.0
62
0
0
LWPOLYLINE
100
AcDbPolyline
8
Layer_1
90
6
70
0
10
51.016016
20
10.258394
30
0.0
10
50.943685
20
10.370402
30
0.0
10
50.914340
20
10.258394
30
0.0
10
50.986667
20
10.146388
30
0.0
10
51.016016
20
10.258394
30
0.0
10
51.016016
20
10.258394
30
0.0
62
0
0
LWPOLYLINE
100
AcDbPolyline
8
Layer_1
90
15
70
0
10
29.358505
20
12.349192
30
0.0
10
30.161936
20
15.357100
30
0.0
10
30.284632
20
16.464099
30
0.0
10
27.708077
20
16.547860
30
0.0
10
25.172064
20
16.591082
30
0.0
10
25.405087
20
15.403528
30
0.0
10
25.582367
20
14.596278
30
0.0
10
25.661505
20
14.458656
30
0.0
10
25.684902
20
14.701337
30
0.0
10
26.421129
20
14.701337
30
0.0
10
27.157359
20
14.701337
30
0.0
10
27.889514
20
12.500624
30
0.0
10
28.669988
20
10.353825
30
0.0
10
29.358503
20
12.349192
30
0.0
10
29.358505
20
12.349192
30
0.0
62
0
0
LWPOLYLINE
100
AcDbPolyline
8
Layer_1
90
8
70
0
10
13.280007
20
10.625387
30
0.0
10
12.564396
20
12.452886
30
0.0
10
12.467800
20
12.303546
30
0.0
10
12.097987
20
11.359797
30
0.0
10
11.797841
20
10.594416
30
0.0
10
12.538923
20
10.594416
30
0.0
10
13.280007
20
10.625387
30
0.0
10
13.280007
20
10.625387
30
0.0
62
0
0
LWPOLYLINE
100
AcDbPolyline
8
Layer_1
90
11
70
0
10
51.879726
20
12.197088
30
0.0
10
52.179316
20
12.560390
30
0.0
10
52.014893
20
13.022535
30
0.0
10
51.788617
20
13.189054
30
0.0
10
51.380190
20
13.261083
30
0.0
10
50.914340
20
13.303323
30
0.0
10
50.914340
20
12.695583
30
0.0
10
50.914340
20
12.087843
30
0.0
10
51.291403
20
12.087843
30
0.0
10
51.879726
20
12.197088
30
0.0
10
51.879726
20
12.197088
30
0.0
  0
ENDSEC
  0
SECTION
  2
OBJECTS
  0
DICTIONARY
  5
C
330
0
100
AcDbDictionary
  3
ACAD_GROUP
350
D
  3
ACAD_MLINESTYLE
350
17
  0
DICTIONARY
  5
D
330
C
100
AcDbDictionary
  0
DICTIONARY
  5
1A
330
C
100
AcDbDictionary
  0
DICTIONARY
  5
17
330
C
100
AcDbDictionary
  3
STANDARD
350
18
  0
DICTIONARY
  5
19
330
C
100
AcDbDictionary
  0
ENDSEC
  0
EOF
