999
Inkscape export via OpenSCAD DXF Export
  0
SECTION
  2
HEADER
  9
$ACADVER
  1
AC1014
  9
$HANDSEED
  5
FFFF
  9
$MEASUREMENT
 70
     1
  0
ENDSEC
  0
SECTION
  2
TABLES
  0
TABLE
  2
VPORT
  5
8
330
0
100
AcDbSymbolTable
 70
     4
  0
VPORT
  5
2E
330
8
100
AcDbSymbolTableRecord
100
AcDbViewportTableRecord
  2
*ACTIVE
 70
     0
 10
0.0
 20
0.0
 11
1.0
 21
1.0
 12
210.0
 22
148.5
 13
0.0
 23
0.0
 14
10.0
 24
10.0
 15
10.0
 25
10.0
 16
0.0
 26
0.0
 36
1.0
 17
0.0
 27
0.0
 37
0.0
 40
341.0
 41
1.24
 42
50.0
 43
0.0
 44
0.0
 50
0.0
 51
0.0
 71
     0
 72
   100
 73
     1
 74
     3
 75
     0
 76
     0
 77
     0
 78
     0
  0
ENDTAB
  0
TABLE
  2
LTYPE
  5
5
330
0
100
AcDbSymbolTable
 70
     1
  0
LTYPE
  5
14
330
5
100
AcDbSymbolTableRecord
100
AcDbLinetypeTableRecord
  2
BYBLOCK
 70
     0
  3

 72
    65
 73
     0
 40
0.0
  0
LTYPE
  5
15
330
5
100
AcDbSymbolTableRecord
100
AcDbLinetypeTableRecord
  2
BYLAYER
 70
     0
  3

 72
    65
 73
     0
 40
0.0
  0
LTYPE
  5
16
330
5
100
AcDbSymbolTableRecord
100
AcDbLinetypeTableRecord
  2
CONTINUOUS
 70
     0
  3
Solid line
 72
    65
 73
     0
 40
0.0
  0
ENDTAB
  0
TABLE
0
TABLE
2
LAYER
5
2
330
0
100
AcDbSymbolTable
70
1
0
LAYER
5
10
330
2
100
AcDbSymbolTableRecord
100
AcDbLayerTableRecord
2
Layer_1
70
0
62
7
6
CONTINUOUS
0
ENDTAB
0
ENDSEC
  0
ENDTAB
  0
TABLE
  2
STYLE
  5
3
330
0
100
AcDbSymbolTable
 70
     1
  0
STYLE
  5
11
330
3
100
AcDbSymbolTableRecord
100
AcDbTextStyleTableRecord
  2
STANDARD
 70
     0
 40
0.0
 41
1.0
 50
0.0
 71
     0
 42
2.5
  3
txt
  4

  0
ENDTAB
  0
TABLE
  2
VIEW
  5
6
330
0
100
AcDbSymbolTable
 70
     0
  0
ENDTAB
  0
TABLE
  2
UCS
  5
7
330
0
100
AcDbSymbolTable
 70
     0
  0
ENDTAB
  0
TABLE
  2
APPID
  5
9
330
0
100
AcDbSymbolTable
 70
     2
  0
APPID
  5
12
330
9
100
AcDbSymbolTableRecord
100
AcDbRegAppTableRecord
  2
ACAD
 70
     0
  0
ENDTAB
  0
TABLE
  2
DIMSTYLE
  5
A
330
0
100
AcDbSymbolTable
 70
     1
  0
DIMSTYLE
105
27
330
A
100
AcDbSymbolTableRecord
100
AcDbDimStyleTableRecord
  2
ISO-25
 70
     0
  3

  4

  5

  6

  7

 40
1.0
 41
2.5
 42
0.625
 43
3.75
 44
1.25
 45
0.0
 46
0.0
 47
0.0
 48
0.0
140
2.5
141
2.5
142
0.0
143
0.03937007874016
144
1.0
145
0.0
146
1.0
147
0.625
 71
     0
 72
     0
 73
     0
 74
     0
 75
     0
 76
     0
 77
     1
 78
     8
170
     0
171
     3
172
     1
173
     0
174
     0
175
     0
176
     0
177
     0
178
     0
270
     2
271
     2
272
     2
273
     2
274
     3
340
11
275
     0
280
     0
281
     0
282
     0
283
     0
284
     8
285
     0
286
     0
287
     3
288
     0
  0
ENDTAB
  0
TABLE
  2
BLOCK_RECORD
  5
1
330
0
100
AcDbSymbolTable
 70
     1
  0
BLOCK_RECORD
  5
1F
330
1
100
AcDbSymbolTableRecord
100
AcDbBlockTableRecord
  2
*MODEL_SPACE
  0
BLOCK_RECORD
  5
1B
330
1
100
AcDbSymbolTableRecord
100
AcDbBlockTableRecord
  2
*PAPER_SPACE
  0
ENDTAB
  0
ENDSEC
  0
SECTION
  2
BLOCKS
  0
BLOCK
  5
20
330
1F
100
AcDbEntity
  8
0
100
AcDbBlockBegin
  2
*MODEL_SPACE
 70
     0
 10
0.0
 20
0.0
 30
0.0
  3
*MODEL_SPACE
  1

  0
ENDBLK
  5
21
330
1F
100
AcDbEntity
  8
0
100
AcDbBlockEnd
  0
BLOCK
  5
1C
330
1B
100
AcDbEntity
 67
     1
  8
0
100
AcDbBlockBegin
  2
*PAPER_SPACE
  1

  0
ENDBLK
  5
1D
330
1B
100
AcDbEntity
 67
     1
  8
0
100
AcDbBlockEnd
  0
ENDSEC
  0
SECTION
  2
ENTITIES
0
DIMENSION
5
83
100
AcDbEntity
62
256
370
-1
6
ByLayer
1
total_width
3
Standard
70
0
71
5
72
1
41
1.0
100
AcDbAlignedDimension
13
0.039009
23
0.000000
33
0.0
14
56.973948
24
0.000000
34
0.0
50
0.000000
100
AcDbRotatedDimension
0
DIMENSION
5
83
100
AcDbEntity
62
256
370
-1
6
ByLayer
1
total_minx
3
Standard
70
0
71
5
72
1
41
1.0
100
AcDbAlignedDimension
13
0.039009
23
0.000000
33
0.0
14
0.000000
24
0.000000
34
0.0
50
0.000000
100
AcDbRotatedDimension
0
DIMENSION
5
83
100
AcDbEntity
62
256
370
-1
6
ByLayer
1
total_maxx
3
Standard
70
0
71
5
72
1
41
1.0
100
AcDbAlignedDimension
13
0.000000
23
0.000000
33
0.0
14
56.973948
24
0.000000
34
0.0
50
0.000000
100
AcDbRotatedDimension
0
DIMENSION
5
83
100
AcDbEntity
62
256
370
-1
6
ByLayer
1
total_height
3
Standard
70
0
71
5
72
1
41
1.0
100
AcDbAlignedDimension
13
0.000000
23
0.000260
33
0.0
14
0.000000
24
18.190916
34
0.0
50
90.000000
100
AcDbRotatedDimension
0
DIMENSION
5
83
100
AcDbEntity
62
256
370
-1
6
ByLayer
1
total_miny
3
Standard
70
0
71
5
72
1
41
1.0
100
AcDbAlignedDimension
13
0.000260
23
0.000000
33
0.0
14
0.000000
24
0.000000
34
0.0
50
0.000000
100
AcDbRotatedDimension
0
DIMENSION
5
83
100
AcDbEntity
62
256
370
-1
6
ByLayer
1
total_maxy
3
Standard
70
0
71
5
72
1
41
1.0
100
AcDbAlignedDimension
13
0.000000
23
0.000000
33
0.0
14
18.190916
24
0.000000
34
0.0
50
0.000000
100
AcDbRotatedDimension
0
DIMENSION
8
Layer_1
5
83
100
AcDbEntity
62
256
370
-1
6
ByLayer
1
Layer_1_width
3
Standard
70
0
71
5
72
1
41
1.0
100
AcDbAlignedDimension
13
0.039009
23
0.000000
33
0.0
14
56.973948
24
0.000000
34
0.0
50
0.000000
100
AcDbRotatedDimension
0
DIMENSION
8
Layer_1
5
83
100
AcDbEntity
62
256
370
-1
6
ByLayer
1
Layer_1_minx
3
Standard
70
0
71
5
72
1
41
1.0
100
AcDbAlignedDimension
13
0.039009
23
0.000000
33
0.0
14
0.000000
24
0.000000
34
0.0
50
0.000000
100
AcDbRotatedDimension
0
DIMENSION
8
Layer_1
5
83
100
AcDbEntity
62
256
370
-1
6
ByLayer
1
Layer_1_maxx
3
Standard
70
0
71
5
72
1
41
1.0
100
AcDbAlignedDimension
13
0.000000
23
0.000000
33
0.0
14
56.973948
24
0.000000
34
0.0
50
0.000000
100
AcDbRotatedDimension
0
DIMENSION
8
Layer_1
5
83
100
AcDbEntity
62
256
370
-1
6
ByLayer
1
Layer_1_height
3
Standard
70
0
71
5
72
1
41
1.0
100
AcDbAlignedDimension
13
0.000000
23
0.000260
33
0.0
14
0.000000
24
18.190916
34
0.0
50
90.000000
100
AcDbRotatedDimension
0
DIMENSION
8
Layer_1
5
83
100
AcDbEntity
62
256
370
-1
6
ByLayer
1
Layer_1_miny
3
Standard
70
0
71
5
72
1
41
1.0
100
AcDbAlignedDimension
13
0.000260
23
0.000000
33
0.0
14
0.000000
24
0.000000
34
0.0
50
0.000000
100
AcDbRotatedDimension
0
DIMENSION
8
Layer_1
5
83
100
AcDbEntity
62
256
370
-1
6
ByLayer
1
Layer_1_maxy
3
Standard
70
0
71
5
72
1
41
1.0
100
AcDbAlignedDimension
13
0.000000
23
0.000000
33
0.0
14
18.190916
24
0.000000
34
0.0
50
0.000000
100
AcDbRotatedDimension
62
0
0
LWPOLYLINE
100
AcDbPolyline
8
Layer_1
90
22
70
0
10
13.715300
20
1.334386
30
0.0
10
0.334204
20
2.725654
30
0.0
10
0.158262
20
4.040503
30
0.0
10
0.039009
20
6.940197
30
0.0
10
0.066643
20
13.592237
30
0.0
10
0.318123
20
17.311630
30
0.0
10
9.188926
20
17.868697
30
0.0
10
16.891741
20
18.136940
30
0.0
10
27.309159
20
18.190916
30
0.0
10
37.334246
20
18.144793
30
0.0
10
45.190447
20
17.908307
30
0.0
10
56.688081
20
17.313227
30
0.0
10
56.846724
20
15.980853
30
0.0
10
56.973948
20
9.008475
30
0.0
10
56.893529
20
5.135095
30
0.0
10
56.733107
20
2.854238
30
0.0
10
56.556370
20
2.664686
30
0.0
10
55.601726
20
2.552974
30
0.0
10
45.309920
20
1.583645
30
0.0
10
27.646119
20
0.000260
30
0.0
10
13.715300
20
1.334386
30
0.0
10
13.715300
20
1.334386
30
0.0
62
0
0
LWPOLYLINE
100
AcDbPolyline
8
Layer_1
90
22
70
0
10
32.636917
20
0.869552
30
0.0
10
55.368780
20
3.016402
30
0.0
10
56.214735
20
3.097386
30
0.0
10
56.332351
20
3.794317
30
0.0
10
56.555359
20
10.314940
30
0.0
10
56.331505
20
16.297696
30
0.0
10
56.254400
20
16.804164
30
0.0
10
56.031799
20
16.913287
30
0.0
10
44.234619
20
17.474700
30
0.0
10
35.405688
20
17.716840
30
0.0
10
26.341867
20
17.782762
30
0.0
10
17.443077
20
17.673434
30
0.0
10
9.109241
20
17.389822
30
0.0
10
0.795753
20
16.881912
30
0.0
10
0.534344
20
13.358225
30
0.0
10
0.478764
20
7.398453
30
0.0
10
0.737790
20
3.118928
30
0.0
10
8.835824
20
2.301881
30
0.0
10
21.972617
20
0.995626
30
0.0
10
27.658796
20
0.478197
30
0.0
10
32.636883
20
0.869552
30
0.0
10
32.636917
20
0.869552
30
0.0
62
0
0
LWPOLYLINE
100
AcDbPolyline
8
Layer_1
90
20
70
0
10
14.419086
20
2.422858
30
0.0
10
1.689181
20
3.601260
30
0.0
10
1.523596
20
4.782577
30
0.0
10
1.388353
20
10.157364
30
0.0
10
1.631416
20
15.806643
30
0.0
10
1.676732
20
16.210068
30
0.0
10
3.401771
20
16.305522
30
0.0
10
16.367784
20
16.848249
30
0.0
10
30.017240
20
16.930268
30
0.0
10
40.570782
20
16.802690
30
0.0
10
50.327831
20
16.436588
30
0.0
10
54.084031
20
16.268951
30
0.0
10
55.331273
20
16.215422
30
0.0
10
55.376566
20
15.888967
30
0.0
10
55.620248
20
10.709914
30
0.0
10
55.482397
20
5.060939
30
0.0
10
55.315310
20
3.597950
30
0.0
10
27.667582
20
1.274256
30
0.0
10
14.419086
20
2.422858
30
0.0
10
14.419086
20
2.422858
30
0.0
62
0
0
LWPOLYLINE
100
AcDbPolyline
8
Layer_1
90
141
70
0
10
34.449978
20
2.224199
30
0.0
10
42.229024
20
2.875715
30
0.0
10
43.329722
20
2.966731
30
0.0
10
43.304293
20
4.140739
30
0.0
10
43.215004
20
5.378379
30
0.0
10
41.367278
20
5.415362
30
0.0
10
40.777781
20
5.334119
30
0.0
10
40.596047
20
4.361093
30
0.0
10
40.455726
20
3.388538
30
0.0
10
40.332106
20
3.344027
30
0.0
10
40.257961
20
3.570712
30
0.0
10
40.212363
20
5.172970
30
0.0
10
40.188821
20
6.685826
30
0.0
10
40.053065
20
7.079855
30
0.0
10
39.699780
20
7.231513
30
0.0
10
39.208718
20
7.158744
30
0.0
10
38.977799
20
7.078337
30
0.0
10
39.004215
20
5.592981
30
0.0
10
38.984026
20
3.914776
30
0.0
10
38.902344
20
3.639437
30
0.0
10
38.754231
20
3.590248
30
0.0
10
38.600041
20
3.717095
30
0.0
10
38.535864
20
4.292126
30
0.0
10
38.400748
20
5.096284
30
0.0
10
38.151398
20
5.520566
30
0.0
10
37.895414
20
5.128636
30
0.0
10
37.743237
20
4.297274
30
0.0
10
37.715487
20
3.884722
30
0.0
10
37.553070
20
3.814231
30
0.0
10
37.379820
20
3.957346
30
0.0
10
37.304980
20
4.932911
30
0.0
10
37.156638
20
6.008229
30
0.0
10
36.926830
20
5.915700
30
0.0
10
36.811164
20
5.707061
30
0.0
10
36.787447
20
4.880206
30
0.0
10
36.787447
20
3.893879
30
0.0
10
36.593024
20
3.893879
30
0.0
10
36.343305
20
3.804412
30
0.0
10
35.920446
20
3.755057
30
0.0
10
35.448462
20
3.738452
30
0.0
10
35.353758
20
3.409346
30
0.0
10
35.297378
20
3.097386
30
0.0
10
34.934042
20
3.396070
30
0.0
10
34.672909
20
3.614135
30
0.0
10
34.557803
20
3.575281
30
0.0
10
34.287091
20
3.214788
30
0.0
10
33.977504
20
3.239471
30
0.0
10
33.571917
20
3.289430
30
0.0
10
33.465997
20
3.323487
30
0.0
10
33.442171
20
3.646410
30
0.0
10
33.413241
20
3.989271
30
0.0
10
33.258066
20
4.053180
30
0.0
10
32.884302
20
3.876483
30
0.0
10
32.639043
20
3.736050
30
0.0
10
32.200029
20
3.721997
30
0.0
10
31.705417
20
3.744208
30
0.0
10
31.612191
20
3.461729
30
0.0
10
31.436220
20
3.128114
30
0.0
10
31.285756
20
3.190458
30
0.0
10
31.213208
20
3.475719
30
0.0
10
31.050190
20
3.654930
30
0.0
10
30.842545
20
3.774403
30
0.0
10
30.446797
20
3.893876
30
0.0
10
30.153602
20
3.863188
30
0.0
10
30.096897
20
3.704505
30
0.0
10
29.997795
20
3.439184
30
0.0
10
29.830708
20
3.390124
30
0.0
10
29.778300
20
4.369119
30
0.0
10
29.709961
20
5.307307
30
0.0
10
29.581774
20
5.454461
30
0.0
10
29.352895
20
5.486866
30
0.0
10
29.118650
20
5.486866
30
0.0
10
29.160462
20
4.816701
30
0.0
10
29.202270
20
4.146539
30
0.0
10
28.673879
20
4.142136
30
0.0
10
27.899134
20
4.226408
30
0.0
10
27.071935
20
4.228948
30
0.0
10
26.491093
20
4.142737
30
0.0
10
26.177736
20
4.394558
30
0.0
10
25.820149
20
4.867535
30
0.0
10
25.732652
20
5.051094
30
0.0
10
25.477232
20
5.088701
30
0.0
10
24.929642
20
5.038920
30
0.0
10
24.680739
20
4.989139
30
0.0
10
24.680739
20
4.252177
30
0.0
10
24.571832
20
3.424832
30
0.0
10
24.392020
20
3.422099
30
0.0
10
24.270670
20
3.691670
30
0.0
10
23.996285
20
3.897994
30
0.0
10
23.638499
20
4.043709
30
0.0
10
23.565648
20
4.414861
30
0.0
10
23.533531
20
4.710525
30
0.0
10
23.386437
20
4.803820
30
0.0
10
22.298936
20
4.881564
30
0.0
10
21.972659
20
4.829392
30
0.0
10
21.972659
20
4.127427
30
0.0
10
21.902164
20
3.420530
30
0.0
10
21.795045
20
3.368830
30
0.0
10
21.623121
20
3.487366
30
0.0
10
21.319055
20
3.655012
30
0.0
10
21.141478
20
3.862022
30
0.0
10
21.023926
20
4.037090
30
0.0
10
20.555387
20
4.041233
30
0.0
10
20.021250
20
4.013434
30
0.0
10
19.996245
20
4.409660
30
0.0
10
19.892219
20
4.882295
30
0.0
10
19.607563
20
5.009052
30
0.0
10
19.295325
20
4.880610
30
0.0
10
19.184368
20
4.516933
30
0.0
10
19.133026
20
3.714750
30
0.0
10
18.989448
20
3.184057
30
0.0
10
18.814629
20
3.554473
30
0.0
10
18.644216
20
3.934386
30
0.0
10
18.181362
20
3.937548
30
0.0
10
17.910544
20
3.886742
30
0.0
10
17.910544
20
3.420976
30
0.0
10
17.822502
20
2.938077
30
0.0
10
17.480658
20
2.935057
30
0.0
10
17.261969
20
3.247129
30
0.0
10
17.143080
20
4.351946
30
0.0
10
17.026226
20
5.009052
30
0.0
10
16.954751
20
5.746561
30
0.0
10
16.927853
20
6.376335
30
0.0
10
16.795453
20
6.583556
30
0.0
10
16.665539
20
6.764292
30
0.0
10
16.635066
20
7.219998
30
0.0
10
16.579248
20
7.938445
30
0.0
10
16.358048
20
8.115379
30
0.0
10
16.139125
20
7.907251
30
0.0
10
16.078609
20
7.154331
30
0.0
10
15.998960
20
6.641866
30
0.0
10
15.919308
20
5.915084
30
0.0
10
15.844889
20
5.098471
30
0.0
10
15.713506
20
4.059225
30
0.0
10
15.656545
20
3.159038
30
0.0
10
15.395126
20
3.049809
30
0.0
10
15.089163
20
2.853422
30
0.0
10
15.337152
20
2.774250
30
0.0
10
27.679791
20
1.672875
30
0.0
10
34.449989
20
2.224281
30
0.0
10
34.449978
20
2.224199
30
0.0
62
0
0
LWPOLYLINE
100
AcDbPolyline
8
Layer_1
90
23
70
0
10
14.824120
20
2.990235
30
0.0
10
14.963506
20
3.142578
30
0.0
10
15.159826
20
3.256684
30
0.0
10
15.449273
20
3.475901
30
0.0
10
15.521050
20
4.359902
30
0.0
10
15.620613
20
5.192183
30
0.0
10
15.673310
20
5.227817
30
0.0
10
15.305298
20
5.380252
30
0.0
10
11.339460
20
6.752819
30
0.0
10
7.197691
20
8.177363
30
0.0
10
6.890943
20
8.021125
30
0.0
10
5.900182
20
7.797762
30
0.0
10
4.151102
20
7.718465
30
0.0
10
3.095749
20
7.717053
30
0.0
10
3.095749
20
8.655945
30
0.0
10
3.095749
20
9.594833
30
0.0
10
2.443183
20
9.808766
30
0.0
10
1.752424
20
9.984503
30
0.0
10
1.838058
20
6.995606
30
0.0
10
2.089573
20
3.997367
30
0.0
10
14.405959
20
2.915466
30
0.0
10
14.824120
20
2.990238
30
0.0
10
14.824120
20
2.990235
30
0.0
62
0
0
LWPOLYLINE
100
AcDbPolyline
8
Layer_1
90
38
70
0
10
49.400912
20
3.492424
30
0.0
10
54.913462
20
3.992592
30
0.0
10
55.191036
20
8.035648
30
0.0
10
55.227975
20
10.685434
30
0.0
10
55.078136
20
11.513318
30
0.0
10
53.832404
20
11.025395
30
0.0
10
52.620791
20
10.518888
30
0.0
10
53.277900
20
9.127216
30
0.0
10
53.991705
20
7.754208
30
0.0
10
53.174505
20
7.717051
30
0.0
10
52.357308
20
7.717051
30
0.0
10
51.760730
20
8.834049
30
0.0
10
51.053520
20
9.914747
30
0.0
10
50.941024
20
9.636881
30
0.0
10
50.903042
20
8.811246
30
0.0
10
50.880888
20
7.717056
30
0.0
10
50.126465
20
7.717056
30
0.0
10
49.372046
20
7.717056
30
0.0
10
49.372046
20
8.508588
30
0.0
10
49.372046
20
9.300120
30
0.0
10
48.834413
20
9.080057
30
0.0
10
48.296779
20
8.859997
30
0.0
10
48.273383
20
8.288525
30
0.0
10
48.249987
20
7.717056
30
0.0
10
46.799875
20
7.717621
30
0.0
10
45.349761
20
7.718185
30
0.0
10
42.860719
20
6.750502
30
0.0
10
40.740097
20
5.896888
30
0.0
10
40.371677
20
5.585395
30
0.0
10
40.471237
20
5.470212
30
0.0
10
43.086251
20
5.666257
30
0.0
10
43.327456
20
5.579081
30
0.0
10
43.470883
20
5.336286
30
0.0
10
43.557650
20
4.067615
30
0.0
10
43.580898
20
3.154481
30
0.0
10
43.736861
20
3.019021
30
0.0
10
49.400928
20
3.492602
30
0.0
10
49.400912
20
3.492424
30
0.0
62
0
0
LWPOLYLINE
100
AcDbPolyline
8
Layer_1
90
10
70
0
10
17.724368
20
3.595195
30
0.0
10
17.791060
20
4.093004
30
0.0
10
18.364812
20
4.093004
30
0.0
10
18.882534
20
4.142452
30
0.0
10
18.089744
20
4.435492
30
0.0
10
17.352986
20
4.679078
30
0.0
10
17.352986
20
4.290399
30
0.0
10
17.591582
20
3.097386
30
0.0
10
17.724368
20
3.595195
30
0.0
10
17.724368
20
3.595195
30
0.0
62
0
0
LWPOLYLINE
100
AcDbPolyline
8
Layer_1
90
99
70
0
10
34.356935
20
3.769843
30
0.0
10
35.552871
20
4.232464
30
0.0
10
36.508665
20
4.590463
30
0.0
10
36.531468
20
5.357261
30
0.0
10
36.574958
20
5.999262
30
0.0
10
36.704166
20
6.124061
30
0.0
10
37.032383
20
6.220515
30
0.0
10
37.106042
20
6.650304
30
0.0
10
37.218442
20
7.079855
30
0.0
10
37.376258
20
6.621870
30
0.0
10
37.483384
20
5.566517
30
0.0
10
37.545097
20
4.969146
30
0.0
10
37.763642
20
5.384659
30
0.0
10
37.982186
20
5.922292
30
0.0
10
38.119760
20
6.031808
30
0.0
10
38.351452
20
5.721940
30
0.0
10
38.609668
20
5.424128
30
0.0
10
38.722024
20
5.616401
30
0.0
10
38.778680
20
6.363400
30
0.0
10
38.818504
20
7.278012
30
0.0
10
39.244476
20
7.391668
30
0.0
10
39.654147
20
7.465295
30
0.0
10
40.001145
20
7.385036
30
0.0
10
40.331842
20
7.264730
30
0.0
10
40.355238
20
6.694404
30
0.0
10
40.428040
20
6.124075
30
0.0
10
44.433958
20
7.703730
30
0.0
10
44.354132
20
11.228270
30
0.0
10
44.354132
20
14.726206
30
0.0
10
46.305541
20
14.726206
30
0.0
10
48.256952
20
14.726206
30
0.0
10
48.256952
20
14.009362
30
0.0
10
48.256952
20
13.292517
30
0.0
10
47.062209
20
13.292517
30
0.0
10
45.867470
20
13.292517
30
0.0
10
45.867470
20
12.774797
30
0.0
10
45.867470
20
12.257075
30
0.0
10
47.062209
20
12.257075
30
0.0
10
48.256952
20
12.257075
30
0.0
10
48.256952
20
11.540230
30
0.0
10
48.256952
20
10.823386
30
0.0
10
47.062209
20
10.823386
30
0.0
10
45.867470
20
10.823386
30
0.0
10
45.867470
20
10.030787
30
0.0
10
45.867470
20
9.238189
30
0.0
10
47.121947
20
9.214369
30
0.0
10
48.247661
20
9.222833
30
0.0
10
48.854320
20
9.361410
30
0.0
10
49.332219
20
9.532259
30
0.0
10
49.353216
20
12.129225
30
0.0
10
49.374213
20
14.726195
30
0.0
10
50.587777
20
14.724219
30
0.0
10
52.159764
20
14.640656
30
0.0
10
52.743894
20
14.412014
30
0.0
10
53.176302
20
14.028143
30
0.0
10
53.454889
20
13.491763
30
0.0
10
53.577555
20
12.805591
30
0.0
10
53.571988
20
12.209198
30
0.0
10
53.393738
20
11.730973
30
0.0
10
53.137893
20
11.325659
30
0.0
10
52.785383
20
11.039901
30
0.0
10
52.426449
20
10.769058
30
0.0
10
55.047055
20
11.740309
30
0.0
10
55.186247
20
12.325294
30
0.0
10
54.981433
20
15.379435
30
0.0
10
54.896784
20
15.710803
30
0.0
10
54.602039
20
15.796062
30
0.0
10
46.948386
20
16.144215
30
0.0
10
45.440704
20
16.199680
30
0.0
10
44.404542
20
15.283711
30
0.0
10
43.368378
20
14.367744
30
0.0
10
42.427895
20
12.535809
30
0.0
10
41.487412
20
10.703873
30
0.0
10
41.487130
20
9.210446
30
0.0
10
41.486847
20
7.717020
30
0.0
10
40.730178
20
7.717020
30
0.0
10
39.973507
20
7.717020
30
0.0
10
39.973507
20
9.226612
30
0.0
10
39.920202
20
10.708062
30
0.0
10
39.738196
20
11.141944
30
0.0
10
38.596065
20
10.183309
30
0.0
10
37.504378
20
9.224676
30
0.0
10
37.504378
20
8.470849
30
0.0
10
37.504378
20
7.717020
30
0.0
10
36.644216
20
7.717020
30
0.0
10
35.784053
20
7.717020
30
0.0
10
33.597627
20
5.800310
30
0.0
10
31.388104
20
3.749336
30
0.0
10
31.386982
20
3.659602
30
0.0
10
31.477771
20
3.756166
30
0.0
10
32.096546
20
3.904372
30
0.0
10
32.743163
20
4.073624
30
0.0
10
33.282492
20
4.274061
30
0.0
10
33.681207
20
4.312372
30
0.0
10
33.681207
20
3.905964
30
0.0
10
33.681207
20
3.499556
30
0.0
10
33.899046
20
3.582376
30
0.0
10
34.357031
20
3.769823
30
0.0
10
34.356935
20
3.769843
30
0.0
62
0
0
LWPOLYLINE
100
AcDbPolyline
8
Layer_1
90
36
70
0
10
21.812134
20
4.509646
30
0.0
10
21.843492
20
4.940532
30
0.0
10
22.019480
20
5.057671
30
0.0
10
22.569457
20
5.118924
30
0.0
10
22.900961
20
5.140542
30
0.0
10
21.306485
20
6.434847
30
0.0
10
19.724350
20
7.717059
30
0.0
10
18.259896
20
7.717059
30
0.0
10
16.795442
20
7.717059
30
0.0
10
16.796288
20
7.537848
30
0.0
10
16.867138
20
6.981129
30
0.0
10
17.044430
20
6.718246
30
0.0
10
17.168271
20
6.557327
30
0.0
10
17.193660
20
5.956074
30
0.0
10
17.328883
20
5.121946
30
0.0
10
18.175712
20
4.698656
30
0.0
10
18.903602
20
4.451432
30
0.0
10
18.979015
20
4.722201
30
0.0
10
19.147177
20
5.090377
30
0.0
10
19.264542
20
5.377155
30
0.0
10
19.349708
20
5.559309
30
0.0
10
19.518184
20
5.347487
30
0.0
10
19.608582
20
5.128452
30
0.0
10
19.655598
20
5.360831
30
0.0
10
19.796599
20
5.618941
30
0.0
10
19.901740
20
5.550179
30
0.0
10
20.061038
20
5.128452
30
0.0
10
20.220335
20
4.524877
30
0.0
10
20.220335
20
4.233754
30
0.0
10
20.777882
20
4.273646
30
0.0
10
21.265060
20
4.282720
30
0.0
10
21.335429
20
4.109254
30
0.0
10
21.514640
20
3.878351
30
0.0
10
21.756386
20
3.966590
30
0.0
10
21.812106
20
4.509651
30
0.0
10
21.812134
20
4.509646
30
0.0
62
0
0
LWPOLYLINE
100
AcDbPolyline
8
Layer_1
90
7
70
0
10
36.547987
20
4.227553
30
0.0
10
36.173605
20
4.154720
30
0.0
10
35.906045
20
4.042110
30
0.0
10
35.951058
20
3.973551
30
0.0
10
36.304317
20
4.038182
30
0.0
10
36.547987
20
4.227553
30
0.0
10
36.547987
20
4.227553
30
0.0
62
0
0
LWPOLYLINE
100
AcDbPolyline
8
Layer_1
90
19
70
0
10
33.275606
20
5.924939
30
0.0
10
35.284949
20
7.677226
30
0.0
10
34.444881
20
7.699804
30
0.0
10
33.604812
20
7.722382
30
0.0
10
33.583222
20
9.286497
30
0.0
10
33.561632
20
10.850609
30
0.0
10
33.053514
20
9.912754
30
0.0
10
32.545395
20
8.974898
30
0.0
10
32.635354
20
8.430181
30
0.0
10
32.725312
20
7.805220
30
0.0
10
32.276646
20
7.701088
30
0.0
10
31.827978
20
7.677212
30
0.0
10
30.890670
20
5.970620
30
0.0
10
29.997677
20
4.148545
30
0.0
10
30.507508
20
4.081715
30
0.0
10
30.973025
20
4.047428
30
0.0
10
31.303781
20
4.224110
30
0.0
10
33.275600
20
5.924925
30
0.0
10
33.275606
20
5.924939
30
0.0
62
0
0
LWPOLYLINE
100
AcDbPolyline
8
Layer_1
90
7
70
0
10
24.116549
20
4.155367
30
0.0
10
23.943973
20
4.284593
30
0.0
10
23.829537
20
4.349051
30
0.0
10
23.804586
20
4.262044
30
0.0
10
23.977162
20
4.132817
30
0.0
10
24.116549
20
4.155367
30
0.0
10
24.116549
20
4.155367
30
0.0
62
0
0
LWPOLYLINE
100
AcDbPolyline
8
Layer_1
90
13
70
0
10
28.655298
20
5.896254
30
0.0
10
28.902149
20
7.588803
30
0.0
10
28.442299
20
7.717051
30
0.0
10
27.982451
20
7.717051
30
0.0
10
27.348984
20
9.628635
30
0.0
10
26.667697
20
11.540222
30
0.0
10
26.522245
20
10.902439
30
0.0
10
26.424610
20
10.264659
30
0.0
10
26.994095
20
7.417779
30
0.0
10
27.588926
20
4.544455
30
0.0
10
28.396438
20
4.323944
30
0.0
10
28.655298
20
5.896254
30
0.0
10
28.655298
20
5.896254
30
0.0
62
0
0
LWPOLYLINE
100
AcDbPolyline
8
Layer_1
90
42
70
0
10
24.462576
20
4.740049
30
0.0
10
24.589893
20
5.140675
30
0.0
10
24.919680
20
5.247919
30
0.0
10
25.175956
20
5.282556
30
0.0
10
25.229070
20
5.444722
30
0.0
10
24.639763
20
6.552729
30
0.0
10
23.942813
20
7.717051
30
0.0
10
22.400186
20
7.717051
30
0.0
10
20.857559
20
7.717051
30
0.0
10
20.857559
20
10.285578
30
0.0
10
20.857559
20
12.854105
30
0.0
10
19.764341
20
14.673555
30
0.0
10
18.671122
20
16.493007
30
0.0
10
17.275299
20
16.445196
30
0.0
10
13.051919
20
16.316384
30
0.0
10
9.960940
20
16.193169
30
0.0
10
9.697511
20
16.150951
30
0.0
10
10.704790
20
15.345794
30
0.0
10
11.771370
20
14.636578
30
0.0
10
12.567474
20
14.709448
30
0.0
10
13.304280
20
14.686362
30
0.0
10
13.715734
20
13.637808
30
0.0
10
14.127186
20
12.589253
30
0.0
10
15.421491
20
11.544323
30
0.0
10
16.715793
20
10.499392
30
0.0
10
16.715793
20
12.612788
30
0.0
10
16.715793
20
14.726186
30
0.0
10
17.472462
20
14.726186
30
0.0
10
18.229131
20
14.726186
30
0.0
10
18.229131
20
11.986805
30
0.0
10
18.250308
20
9.699804
30
0.0
10
18.355118
20
9.199076
30
0.0
10
19.310911
20
9.150731
30
0.0
10
20.140715
20
9.150731
30
0.0
10
20.140715
20
8.451932
30
0.0
10
20.140715
20
7.753133
30
0.0
10
21.824585
20
6.400961
30
0.0
10
23.572458
20
5.023708
30
0.0
10
23.979349
20
4.685199
30
0.0
10
24.371652
20
4.371766
30
0.0
10
24.462576
20
4.740041
30
0.0
10
24.462576
20
4.740049
30
0.0
62
0
0
LWPOLYLINE
100
AcDbPolyline
8
Layer_1
90
36
70
0
10
27.217996
20
4.493012
30
0.0
10
26.782914
20
6.952099
30
0.0
10
26.264895
20
9.283728
30
0.0
10
26.117335
20
8.558493
30
0.0
10
25.978250
20
7.821735
30
0.0
10
25.230210
20
7.711840
30
0.0
10
24.521430
20
7.806128
30
0.0
10
25.007917
20
10.693420
30
0.0
10
25.494400
20
13.491619
30
0.0
10
25.279589
20
14.646535
30
0.0
10
24.983270
20
16.190793
30
0.0
10
24.901759
20
16.580132
30
0.0
10
21.983603
20
16.521893
30
0.0
10
19.043988
20
16.442964
30
0.0
10
19.920130
20
14.939967
30
0.0
10
20.817735
20
13.457659
30
0.0
10
20.840877
20
14.091920
30
0.0
10
20.864019
20
14.726183
30
0.0
10
21.617468
20
14.726183
30
0.0
10
22.370914
20
14.726183
30
0.0
10
22.370914
20
12.805921
30
0.0
10
22.370914
20
10.885655
30
0.0
10
22.901068
20
10.018192
30
0.0
10
23.431223
20
9.150728
30
0.0
10
23.856862
20
9.150728
30
0.0
10
24.282501
20
9.150728
30
0.0
10
24.282501
20
8.447148
30
0.0
10
24.282501
20
7.743571
30
0.0
10
25.000107
20
6.555475
30
0.0
10
25.876249
20
5.295474
30
0.0
10
26.034788
20
5.022500
30
0.0
10
26.293648
20
4.595529
30
0.0
10
26.562819
20
4.418763
30
0.0
10
26.868114
20
4.414164
30
0.0
10
27.218013
20
4.493000
30
0.0
10
27.217996
20
4.493012
30
0.0
62
0
0
LWPOLYLINE
100
AcDbPolyline
8
Layer_1
90
16
70
0
10
29.358994
20
5.684644
30
0.0
10
29.812839
20
5.624107
30
0.0
10
29.938681
20
5.172958
30
0.0
10
29.964143
20
5.068751
30
0.0
10
30.069680
20
5.173653
30
0.0
10
30.703489
20
6.273631
30
0.0
10
31.375279
20
7.714578
30
0.0
10
30.947868
20
9.731722
30
0.0
10
30.612390
20
11.692052
30
0.0
10
29.910817
20
9.594266
30
0.0
10
29.284720
20
7.593557
30
0.0
10
28.974703
20
5.999398
30
0.0
10
28.841068
20
4.439663
30
0.0
10
28.964966
20
5.003007
30
0.0
10
28.987967
20
5.629004
30
0.0
10
29.358994
20
5.684644
30
0.0
62
0
0
LWPOLYLINE
100
AcDbPolyline
8
Layer_1
90
6
70
0
10
38.753748
20
5.069637
30
0.0
10
38.719108
20
4.889497
30
0.0
10
38.730402
20
4.717403
30
0.0
10
38.755354
20
4.751039
30
0.0
10
38.753661
20
5.069637
30
0.0
10
38.753748
20
5.069637
30
0.0
62
0
0
LWPOLYLINE
100
AcDbPolyline
8
Layer_1
90
17
70
0
10
15.749188
20
6.223624
30
0.0
10
15.890183
20
7.295919
30
0.0
10
15.933696
20
7.711107
30
0.0
10
15.158443
20
7.733995
30
0.0
10
14.383187
20
7.756883
30
0.0
10
14.122484
20
8.433903
30
0.0
10
13.861781
20
9.110924
30
0.0
10
12.555044
20
9.132683
30
0.0
10
11.248308
20
9.154470
30
0.0
10
10.972227
20
8.455677
30
0.0
10
10.696145
20
7.756883
30
0.0
10
10.062009
20
7.717059
30
0.0
10
9.427873
20
7.677235
30
0.0
10
12.494375
20
6.628243
30
0.0
10
15.606290
20
5.572890
30
0.0
10
15.749188
20
6.223632
30
0.0
10
15.749188
20
6.223624
30
0.0
62
0
0
LWPOLYLINE
100
AcDbPolyline
8
Layer_1
90
26
70
0
10
10.341449
20
10.957450
30
0.0
10
11.569778
20
14.211091
30
0.0
10
10.423491
20
15.242320
30
0.0
10
9.268575
20
16.180655
30
0.0
10
8.272957
20
16.129745
30
0.0
10
2.329261
20
15.796940
30
0.0
10
2.108913
20
15.699312
30
0.0
10
2.033207
20
15.301939
30
0.0
10
1.835389
20
10.989860
30
0.0
10
1.861184
20
10.240377
30
0.0
10
2.414334
20
10.053980
30
0.0
10
3.031616
20
9.867584
30
0.0
10
3.095751
20
12.296891
30
0.0
10
3.095751
20
14.726195
30
0.0
10
4.429878
20
14.725066
30
0.0
10
6.556362
20
14.529222
30
0.0
10
7.210369
20
14.238776
30
0.0
10
7.739199
20
13.777719
30
0.0
10
8.430105
20
12.583396
30
0.0
10
8.665357
20
11.181027
30
0.0
10
8.443867
20
9.791937
30
0.0
10
7.764542
20
8.637451
30
0.0
10
7.582021
20
8.309853
30
0.0
10
9.075699
20
7.802745
30
0.0
10
10.341460
20
10.957498
30
0.0
10
10.341449
20
10.957450
30
0.0
62
0
0
LWPOLYLINE
100
AcDbPolyline
8
Layer_1
90
19
70
0
10
6.165006
20
8.042899
30
0.0
10
6.801583
20
8.233560
30
0.0
10
7.337649
20
8.554990
30
0.0
10
7.781501
20
9.013798
30
0.0
10
8.141436
20
9.616590
30
0.0
10
8.356860
20
10.212126
30
0.0
10
8.391468
20
11.141972
30
0.0
10
8.252945
20
12.471385
30
0.0
10
7.707505
20
13.452311
30
0.0
10
7.209616
20
13.957264
30
0.0
10
6.599264
20
14.279291
30
0.0
10
5.753494
20
14.460920
30
0.0
10
4.549348
20
14.544681
30
0.0
10
3.255046
20
14.589210
30
0.0
10
3.255046
20
11.272605
30
0.0
10
3.255046
20
7.955997
30
0.0
10
4.474983
20
7.955997
30
0.0
10
6.165006
20
8.042899
30
0.0
10
6.165006
20
8.042899
30
0.0
62
0
0
LWPOLYLINE
100
AcDbPolyline
8
Layer_1
90
13
70
0
10
4.370137
20
11.261759
30
0.0
10
4.370137
20
13.554956
30
0.0
10
5.027246
20
13.503487
30
0.0
10
5.968998
20
13.364586
30
0.0
10
6.580665
20
13.058640
30
0.0
10
7.146902
20
12.338930
30
0.0
10
7.345177
20
11.277758
30
0.0
10
7.219826
20
10.256916
30
0.0
10
6.817269
20
9.550200
30
0.0
10
6.208360
20
9.155271
30
0.0
10
5.186544
20
9.010325
30
0.0
10
4.370137
20
8.968562
30
0.0
10
4.370137
20
11.261759
30
0.0
62
0
0
LWPOLYLINE
100
AcDbPolyline
8
Layer_1
90
14
70
0
10
6.002951
20
9.317903
30
0.0
10
6.570453
20
9.651544
30
0.0
10
6.964794
20
10.243959
30
0.0
10
7.147761
20
11.005526
30
0.0
10
7.081141
20
11.846625
30
0.0
10
6.847877
20
12.432609
30
0.0
10
6.462940
20
12.861486
30
0.0
10
5.919022
20
13.138812
30
0.0
10
5.208814
20
13.270143
30
0.0
10
4.609086
20
13.315501
30
0.0
10
4.609086
20
11.319406
30
0.0
10
4.708649
20
9.283138
30
0.0
10
6.002951
20
9.317903
30
0.0
10
6.002951
20
9.317903
30
0.0
62
0
0
LWPOLYLINE
100
AcDbPolyline
8
Layer_1
90
17
70
0
10
10.795860
20
8.613106
30
0.0
10
11.044165
20
9.270213
30
0.0
10
12.540753
20
9.270213
30
0.0
10
14.037340
20
9.270213
30
0.0
10
14.283785
20
8.633017
30
0.0
10
14.530233
20
7.995824
30
0.0
10
15.065468
20
7.972287
30
0.0
10
15.600702
20
8.011047
30
0.0
10
14.353091
20
11.320134
30
0.0
10
13.105479
20
14.566911
30
0.0
10
12.537329
20
14.566911
30
0.0
10
11.969179
20
14.566911
30
0.0
10
10.718438
20
11.313168
30
0.0
10
9.467697
20
8.007720
30
0.0
10
10.007628
20
7.956011
30
0.0
10
10.547558
20
7.956011
30
0.0
10
10.795860
20
8.613106
30
0.0
62
0
0
LWPOLYLINE
100
AcDbPolyline
8
Layer_1
90
10
70
0
10
11.538582
20
10.495051
30
0.0
10
11.647175
20
10.833560
30
0.0
10
12.134353
20
12.084502
30
0.0
10
12.577221
20
13.000471
30
0.0
10
12.958913
20
12.097766
30
0.0
10
13.441730
20
10.843288
30
0.0
10
13.607141
20
10.425128
30
0.0
10
12.572861
20
10.425128
30
0.0
10
11.538582
20
10.495051
30
0.0
10
11.538582
20
10.495051
30
0.0
62
0
0
LWPOLYLINE
100
AcDbPolyline
8
Layer_1
90
9
70
0
10
13.267752
20
10.683991
30
0.0
10
12.888651
20
11.655989
30
0.0
10
12.608862
20
12.310622
30
0.0
10
12.489981
20
12.372834
30
0.0
10
12.109901
20
11.400835
30
0.0
10
11.789542
20
10.584428
30
0.0
10
12.548726
20
10.584428
30
0.0
10
13.267752
20
10.683991
30
0.0
10
13.267752
20
10.683991
30
0.0
62
0
0
LWPOLYLINE
100
AcDbPolyline
8
Layer_1
90
13
70
0
10
16.073396
20
8.594993
30
0.0
10
16.292429
20
9.116291
30
0.0
10
16.518819
20
9.071091
30
0.0
10
16.657246
20
8.692755
30
0.0
10
16.669958
20
8.618294
30
0.0
10
16.682529
20
8.695232
30
0.0
10
16.701436
20
9.232468
30
0.0
10
16.715802
20
10.150517
30
0.0
10
15.553636
20
11.090343
30
0.0
10
14.365918
20
12.004232
30
0.0
10
15.924608
20
7.999098
30
0.0
10
16.073404
20
8.594993
30
0.0
10
16.073396
20
8.594993
30
0.0
62
0
0
LWPOLYLINE
100
AcDbPolyline
8
Layer_1
90
13
70
0
10
19.901769
20
8.473719
30
0.0
10
19.901769
20
8.991439
30
0.0
10
18.945975
20
8.991439
30
0.0
10
17.990182
20
8.991439
30
0.0
10
17.990182
20
11.779168
30
0.0
10
17.990182
20
14.566897
30
0.0
10
17.472462
20
14.566897
30
0.0
10
16.954739
20
14.566897
30
0.0
10
16.954739
20
11.261448
30
0.0
10
16.954739
20
7.955997
30
0.0
10
18.428253
20
7.955997
30
0.0
10
19.901769
20
7.955997
30
0.0
10
19.901769
20
8.473719
30
0.0
62
0
0
LWPOLYLINE
100
AcDbPolyline
8
Layer_1
90
13
70
0
10
24.043535
20
8.473719
30
0.0
10
24.043535
20
8.991439
30
0.0
10
23.087741
20
8.991439
30
0.0
10
22.131951
20
8.991439
30
0.0
10
22.131951
20
11.779168
30
0.0
10
22.131951
20
14.566897
30
0.0
10
21.614228
20
14.566897
30
0.0
10
21.096508
20
14.566897
30
0.0
10
21.096508
20
11.261448
30
0.0
10
21.096508
20
7.955997
30
0.0
10
22.570022
20
7.955997
30
0.0
10
24.043535
20
7.955997
30
0.0
10
24.043535
20
8.473719
30
0.0
62
0
0
LWPOLYLINE
100
AcDbPolyline
8
Layer_1
90
32
70
0
10
25.828808
20
8.175035
30
0.0
10
26.512666
20
12.130921
30
0.0
10
26.626060
20
12.177415
30
0.0
10
27.441341
20
10.066706
30
0.0
10
28.143225
20
7.955997
30
0.0
10
28.636081
20
7.955997
30
0.0
10
29.128937
20
7.955997
30
0.0
10
29.830821
20
10.066706
30
0.0
10
30.516160
20
11.954951
30
0.0
10
30.677417
20
12.165051
30
0.0
10
30.772532
20
11.998204
30
0.0
10
31.450853
20
8.015735
30
0.0
10
31.968649
20
7.955997
30
0.0
10
32.486371
20
8.002953
30
0.0
10
31.407357
20
14.391270
30
0.0
10
31.294110
20
14.543361
30
0.0
10
30.839543
20
14.550568
30
0.0
10
30.256390
20
14.407600
30
0.0
10
29.506412
20
12.177415
30
0.0
10
28.714827
20
9.834338
30
0.0
10
28.641445
20
9.763392
30
0.0
10
28.512294
20
9.997343
30
0.0
10
27.800370
20
12.084434
30
0.0
10
26.983771
20
14.566897
30
0.0
10
26.429622
20
14.566897
30
0.0
10
25.875471
20
14.517579
30
0.0
10
25.317926
20
11.244566
30
0.0
10
24.760379
20
7.988435
30
0.0
10
25.271772
20
7.955997
30
0.0
10
25.718909
20
7.986213
30
0.0
10
25.828808
20
8.175035
30
0.0
10
25.828808
20
8.175035
30
0.0
62
0
0
LWPOLYLINE
100
AcDbPolyline
8
Layer_1
90
25
70
0
10
37.265333
20
8.473719
30
0.0
10
37.265333
20
8.991439
30
0.0
10
36.070594
20
8.991439
30
0.0
10
34.875851
20
8.991439
30
0.0
10
34.875851
20
9.987057
30
0.0
10
34.875851
20
10.982675
30
0.0
10
36.070594
20
10.982675
30
0.0
10
37.265333
20
10.982675
30
0.0
10
37.265333
20
11.500395
30
0.0
10
37.265333
20
12.018117
30
0.0
10
36.070594
20
12.018117
30
0.0
10
34.875851
20
12.018117
30
0.0
10
34.875851
20
12.734962
30
0.0
10
34.875851
20
13.451806
30
0.0
10
36.070594
20
13.451806
30
0.0
10
37.265333
20
13.451806
30
0.0
10
37.265333
20
14.009350
30
0.0
10
37.265333
20
14.566897
30
0.0
10
35.513047
20
14.566897
30
0.0
10
33.760760
20
14.566897
30
0.0
10
33.760760
20
11.261448
30
0.0
10
33.760760
20
7.955997
30
0.0
10
35.513047
20
7.955997
30
0.0
10
37.265333
20
7.955997
30
0.0
10
37.265333
20
8.473719
30
0.0
62
0
0
LWPOLYLINE
100
AcDbPolyline
8
Layer_1
90
21
70
0
10
41.327451
20
9.427436
30
0.0
10
41.327451
20
10.898872
30
0.0
10
42.243420
20
12.679841
30
0.0
10
43.159386
20
14.513856
30
0.0
10
42.619481
20
14.566897
30
0.0
10
42.079576
20
14.566897
30
0.0
10
41.530278
20
13.459274
30
0.0
10
41.058988
20
12.513171
30
0.0
10
40.776896
20
12.183496
30
0.0
10
40.505388
20
12.449804
30
0.0
10
40.065853
20
13.291651
30
0.0
10
39.403601
20
14.566897
30
0.0
10
38.852190
20
14.566897
30
0.0
10
38.300776
20
14.531636
30
0.0
10
39.256566
20
12.658590
30
0.0
10
40.212360
20
10.820804
30
0.0
10
40.212360
20
9.388402
30
0.0
10
40.212360
20
7.955997
30
0.0
10
40.769907
20
7.955997
30
0.0
10
41.327451
20
7.955997
30
0.0
10
41.327451
20
9.427436
30
0.0
62
0
0
LWPOLYLINE
100
AcDbPolyline
8
Layer_1
90
25
70
0
10
48.097649
20
8.473719
30
0.0
10
48.097649
20
8.991439
30
0.0
10
46.863085
20
8.991439
30
0.0
10
45.628518
20
8.991439
30
0.0
10
45.628518
20
9.987057
30
0.0
10
45.628518
20
10.982675
30
0.0
10
46.863085
20
10.982675
30
0.0
10
48.097649
20
10.982675
30
0.0
10
48.097649
20
11.500395
30
0.0
10
48.097649
20
12.018117
30
0.0
10
46.863085
20
12.018117
30
0.0
10
45.628518
20
12.018117
30
0.0
10
45.628518
20
12.734962
30
0.0
10
45.628518
20
13.451806
30
0.0
10
46.863085
20
13.451806
30
0.0
10
48.097649
20
13.451806
30
0.0
10
48.097649
20
14.009350
30
0.0
10
48.097649
20
14.566897
30
0.0
10
46.345362
20
14.566897
30
0.0
10
44.593075
20
14.566897
30
0.0
10
44.593075
20
11.261448
30
0.0
10
44.593075
20
7.955997
30
0.0
10
46.345362
20
7.955997
30
0.0
10
48.097649
20
7.955997
30
0.0
10
48.097649
20
8.473719
30
0.0
62
0
0
LWPOLYLINE
100
AcDbPolyline
8
Layer_1
90
25
70
0
10
50.646429
20
9.395226
30
0.0
10
50.668289
20
10.642035
30
0.0
10
50.717827
20
10.797608
30
0.0
10
50.812847
20
10.809004
30
0.0
10
51.734988
20
9.369775
30
0.0
10
52.490714
20
7.955997
30
0.0
10
53.042086
20
7.955997
30
0.0
10
53.593455
20
8.002603
30
0.0
10
52.836786
20
9.469337
30
0.0
10
52.080118
20
10.936069
30
0.0
10
52.187608
20
10.982675
30
0.0
10
52.658520
20
11.231005
30
0.0
10
53.119720
20
11.666034
30
0.0
10
53.363455
20
12.345639
30
0.0
10
53.353733
20
13.100995
30
0.0
10
53.030897
20
13.840237
30
0.0
10
52.425137
20
14.304507
30
0.0
10
51.859079
20
14.478982
30
0.0
10
50.798132
20
14.547960
30
0.0
10
49.610986
20
14.590037
30
0.0
10
49.610986
20
11.273017
30
0.0
10
49.610986
20
7.955997
30
0.0
10
50.128709
20
7.955997
30
0.0
10
50.646429
20
7.955997
30
0.0
10
50.646429
20
9.395226
30
0.0
62
0
0
LWPOLYLINE
100
AcDbPolyline
8
Layer_1
90
11
70
0
10
50.646429
20
12.643815
30
0.0
10
50.646429
20
13.451806
30
0.0
10
51.207930
20
13.451806
30
0.0
10
51.982640
20
13.335562
30
0.0
10
52.308701
20
12.934817
30
0.0
10
52.348837
20
12.502187
30
0.0
10
52.191801
20
12.187257
30
0.0
10
51.830495
20
11.982919
30
0.0
10
51.257824
20
11.882064
30
0.0
10
50.646429
20
11.835824
30
0.0
10
50.646429
20
12.643815
30
0.0
62
0
0
LWPOLYLINE
100
AcDbPolyline
8
Layer_1
90
11
70
0
10
51.797139
20
12.175817
30
0.0
10
52.083448
20
12.446046
30
0.0
10
52.127218
20
12.853811
30
0.0
10
51.818387
20
13.168049
30
0.0
10
51.206533
20
13.292506
30
0.0
10
50.885378
20
13.292506
30
0.0
10
50.885378
20
12.695137
30
0.0
10
50.885378
20
12.097766
30
0.0
10
51.238616
20
12.097766
30
0.0
10
51.797139
20
12.175817
30
0.0
10
51.797139
20
12.175817
30
0.0
62
0
0
LWPOLYLINE
100
AcDbPolyline
8
Layer_1
90
7
70
0
10
22.758868
20
9.688373
30
0.0
10
22.401306
20
10.259193
30
0.0
10
22.370897
20
9.721559
30
0.0
10
22.370897
20
9.150739
30
0.0
10
22.728461
20
9.150739
30
0.0
10
23.086026
20
9.150739
30
0.0
10
22.758868
20
9.688373
30
0.0
62
0
0
LWPOLYLINE
100
AcDbPolyline
8
Layer_1
90
40
70
0
10
38.300479
20
10.305926
30
0.0
10
39.560573
20
11.456619
30
0.0
10
38.784287
20
13.078683
30
0.0
10
37.982178
20
14.677520
30
0.0
10
38.786119
20
14.709069
30
0.0
10
39.590063
20
14.686379
30
0.0
10
40.171026
20
13.582582
30
0.0
10
40.751989
20
12.478783
30
0.0
10
41.192625
20
13.303809
30
0.0
10
41.773881
20
14.427519
30
0.0
10
41.914501
20
14.726203
30
0.0
10
42.642474
20
14.726203
30
0.0
10
43.370449
20
14.726203
30
0.0
10
44.216376
20
15.460658
30
0.0
10
45.046725
20
16.208968
30
0.0
10
41.765522
20
16.310847
30
0.0
10
37.572044
20
16.437576
30
0.0
10
36.644188
20
16.476283
30
0.0
10
36.167221
20
15.601244
30
0.0
10
35.690254
20
14.726203
30
0.0
10
36.597265
20
14.726203
30
0.0
10
37.504283
20
14.726203
30
0.0
10
37.504283
20
14.009359
30
0.0
10
37.504283
20
13.292514
30
0.0
10
36.269716
20
13.292514
30
0.0
10
35.035151
20
13.292514
30
0.0
10
35.035151
20
12.774795
30
0.0
10
35.035151
20
12.257072
30
0.0
10
36.269716
20
12.257072
30
0.0
10
37.504283
20
12.257072
30
0.0
10
37.504283
20
11.540228
30
0.0
10
37.504283
20
10.823383
30
0.0
10
36.269716
20
10.823383
30
0.0
10
35.035151
20
10.823383
30
0.0
10
35.035151
20
10.026890
30
0.0
10
35.035151
20
9.230397
30
0.0
10
36.050680
20
9.231526
30
0.0
10
37.066209
20
9.232654
30
0.0
10
38.300479
20
10.305869
30
0.0
10
38.300479
20
10.305926
30
0.0
62
0
0
LWPOLYLINE
100
AcDbPolyline
8
Layer_1
90
18
70
0
10
33.063829
20
10.537839
30
0.0
10
33.601462
20
11.522989
30
0.0
10
33.601462
20
13.124592
30
0.0
10
33.601462
20
14.726195
30
0.0
10
34.497518
20
14.727606
30
0.0
10
35.393574
20
14.729017
30
0.0
10
35.851078
20
15.577795
30
0.0
10
36.289149
20
16.441581
30
0.0
10
33.433286
20
16.507389
30
0.0
10
30.596857
20
16.558189
30
0.0
10
30.465889
20
15.702046
30
0.0
10
30.335381
20
14.786164
30
0.0
10
30.957187
20
14.726426
30
0.0
10
31.578536
20
14.726426
30
0.0
10
32.012145
20
12.137822
30
0.0
10
32.485973
20
9.551069
30
0.0
10
33.063829
20
10.538071
30
0.0
10
33.063829
20
10.537839
30
0.0
62
0
0
LWPOLYLINE
100
AcDbPolyline
8
Layer_1
90
6
70
0
10
50.993830
20
10.305655
30
0.0
10
50.916682
20
10.425128
30
0.0
10
50.885378
20
10.305655
30
0.0
10
50.962529
20
10.186182
30
0.0
10
50.993830
20
10.305655
30
0.0
10
50.993830
20
10.305655
30
0.0
62
0
0
LWPOLYLINE
100
AcDbPolyline
8
Layer_1
90
15
70
0
10
29.304917
20
12.226270
30
0.0
10
30.101103
20
15.124444
30
0.0
10
30.304427
20
16.339095
30
0.0
10
30.348493
20
16.558133
30
0.0
10
27.766405
20
16.558133
30
0.0
10
25.184314
20
16.558133
30
0.0
10
25.388383
20
15.518322
30
0.0
10
25.570600
20
14.707886
30
0.0
10
25.685366
20
14.605584
30
0.0
10
26.481709
20
14.709513
30
0.0
10
27.185137
20
14.686370
30
0.0
10
27.899690
20
12.478171
30
0.0
10
28.641113
20
10.296844
30
0.0
10
29.304917
20
12.226270
30
0.0
10
29.304917
20
12.226270
30
0.0
  0
ENDSEC
  0
SECTION
  2
OBJECTS
  0
DICTIONARY
  5
C
330
0
100
AcDbDictionary
  3
ACAD_GROUP
350
D
  3
ACAD_MLINESTYLE
350
17
  0
DICTIONARY
  5
D
330
C
100
AcDbDictionary
  0
DICTIONARY
  5
1A
330
C
100
AcDbDictionary
  0
DICTIONARY
  5
17
330
C
100
AcDbDictionary
  3
STANDARD
350
18
  0
DICTIONARY
  5
19
330
C
100
AcDbDictionary
  0
ENDSEC
  0
EOF
